<svg xmlns="http://www.w3.org/2000/svg" viewBox="0 0 500 500"><g id="freepik--Character--inject-30"><path d="M286.14,215.22l-4.38,6.24-1.19,5,4.46,6.4,8.46-5.2,7.37-7.24a1.33,1.33,0,0,0,.14-1.75L299.8,217l.15-.35a2.22,2.22,0,0,0-.75-2.73l-1.07-.75,4-5.12a2.07,2.07,0,0,0,.06-2.49h0L292,213.31l-4.4-.09Z" style="fill:#b78876"></path><path d="M300,216.85a5,5,0,0,1-1.4,1.19,10.68,10.68,0,0,1-1.74,1,2.12,2.12,0,0,1-1.29.14,1.34,1.34,0,0,1-1-1,1.85,1.85,0,0,1,.3-1.38,6.22,6.22,0,0,1,.76-.94l1.35-1.45a6.34,6.34,0,0,1,1.33-1.24,6.12,6.12,0,0,1-1.06,1.48l-1.26,1.52c-.48.56-1.06,1.19-.92,1.9a.84.84,0,0,0,.66.64,1.61,1.61,0,0,0,1-.09,14.38,14.38,0,0,0,1.72-.88A9.16,9.16,0,0,1,300,216.85Z" style="fill:#aa6550"></path><path d="M301.1,219.9s-.45.55-1.3,1.31a8.53,8.53,0,0,1-1.62,1.25,1.8,1.8,0,0,1-2.49-.54,1.56,1.56,0,0,1,.16-1.44,6.6,6.6,0,0,1,.74-1,9.78,9.78,0,0,1,1.48-1.39,4.35,4.35,0,0,1,1.62-.92,14.81,14.81,0,0,1-1.39,1.2,12.56,12.56,0,0,0-1.35,1.42,6.6,6.6,0,0,0-.66.91,1.14,1.14,0,0,0-.14,1,1.07,1.07,0,0,0,.82.53,1.77,1.77,0,0,0,1-.2,8.94,8.94,0,0,0,1.6-1.1A6.13,6.13,0,0,1,301.1,219.9Z" style="fill:#aa6550"></path><path d="M289,223.58a7.8,7.8,0,0,0,1.32-1.8,5.21,5.21,0,0,0,.45-2.39,4.84,4.84,0,0,0-.79-2.86l-.39-.51.63.11a5.46,5.46,0,0,0,1.71,0,5,5,0,0,0,2.2-.91,2.71,2.71,0,0,0,1.06-1.73l.22.24c-1.51-.05-2.76-.1-3.64-.15a5.45,5.45,0,0,1-1.37-.16,5.54,5.54,0,0,1,1.38-.11c.88,0,2.13,0,3.63,0h.24l0,.24a3,3,0,0,1-1.2,2.07,5.22,5.22,0,0,1-2.42,1,5.34,5.34,0,0,1-1.87,0l.23-.4a5.07,5.07,0,0,1,.84,3.17,5.31,5.31,0,0,1-.59,2.53,4.46,4.46,0,0,1-1.09,1.34C289.25,223.51,289.05,223.6,289,223.58Z" style="fill:#aa6550"></path><path d="M245.49,179.1a2.92,2.92,0,0,1-.18-1.33,3.63,3.63,0,0,1,.52-1.47,10.37,10.37,0,0,1,1.36-1.63,8.83,8.83,0,0,0,1.62-2.12,7.59,7.59,0,0,0,.32-6.32,20.73,20.73,0,0,0-1.69-3.18,15,15,0,0,1-1.57-3.12,5.87,5.87,0,0,1-.25-3.14c.43-2,1.53-3.64,2-5.19a6.09,6.09,0,0,0,.28-3.8,3.72,3.72,0,0,0-.44-1c-.14-.2-.23-.29-.25-.28a6.73,6.73,0,0,1,.49,1.28,6.23,6.23,0,0,1-.43,3.62c-.54,1.48-1.67,3.07-2.17,5.22a6.4,6.4,0,0,0,.23,3.4,16,16,0,0,0,1.61,3.24,21.27,21.27,0,0,1,1.67,3.09,7.11,7.11,0,0,1,.51,3.14,7.33,7.33,0,0,1-.74,2.79,9,9,0,0,1-1.5,2.06,9.46,9.46,0,0,0-1.34,1.74,3.7,3.7,0,0,0-.48,1.6,2.28,2.28,0,0,0,.18,1C245.38,179,245.48,179.11,245.49,179.1Z" style="fill:#263238"></path><path d="M217.23,171a4.81,4.81,0,0,1-4.24,3.15,5.79,5.79,0,0,1-4.84-2.35,7.35,7.35,0,0,1-1.32-5.31A8.53,8.53,0,0,0,207,164c-.2-1.18-1.13-2.12-1.49-3.26-.65-2.06.75-4.35,2.69-5.3a9.71,9.71,0,0,1,6.35-.35" style="fill:#263238"></path><path d="M246.13,145.18c2,1.82,1.44,4.39.64,6.15s-1.77,3.55-1.68,5.49,1.27,3.7,1.92,5.57a10.59,10.59,0,0,1-.16,7.32c-.69,1.75-1.84,3.28-2.54,5s-.87,3.9.3,5.37a3.38,3.38,0,0,1-2.47-1.76,6.58,6.58,0,0,1-.73-3c-.14-4,1.55-7.95.85-11.87-.41-2.28-1.61-4.42-1.59-6.73s1.27-4.43,2.13-6.59,1.3-4.81-.12-6.65" style="fill:#263238"></path><path d="M241,137.91a7.64,7.64,0,0,1,6,3.28,5,5,0,0,1-.83,6.43c-1.76,1.38-4.37,1.11-6.32,0a7.28,7.28,0,0,1-3.25-3.59,5.17,5.17,0,0,1,.46-4.73,4,4,0,0,1,4.34-1.6" style="fill:#263238"></path><path d="M242.91,137.56a10.54,10.54,0,0,0-6.77-5.67,17.47,17.47,0,0,0-9,.07,51.54,51.54,0,0,0-8.52,3.21,19.15,19.15,0,0,0-5.69,3.35,13,13,0,0,0-3.24,5.63c-1.2,3.94-1.1,6.76.77,10.43.82,1.59.33,3.45,1.07,5.08s3.86,3.45,3,5" style="fill:#263238"></path><path d="M236.54,186.93c.11-8,.1-11,.11-11s6.89-1.16,8.29-10.15c.7-4.47.46-11.81.07-17.8-.35-5.39-3.94-12-9.31-11.42l-16.78,4.28a3.15,3.15,0,0,0-2.82,3.21h0v42.86" style="fill:#b78876"></path><path d="M243,154.13a1.17,1.17,0,0,1-1.11,1.17,1.1,1.1,0,0,1-1.19-1,1.15,1.15,0,0,1,1.1-1.17A1.12,1.12,0,0,1,243,154.13Z" style="fill:#263238"></path><path d="M243.43,151.23c-.14.15-1-.5-2.26-.49s-2.15.63-2.28.48.08-.34.47-.63a3.18,3.18,0,0,1,1.83-.57,3,3,0,0,1,1.8.58C243.37,150.89,243.5,151.16,243.43,151.23Z" style="fill:#263238"></path><path d="M231.25,154.13a1.16,1.16,0,0,1-1.11,1.17,1.11,1.11,0,0,1-1.19-1,1.16,1.16,0,0,1,1.11-1.17A1.11,1.11,0,0,1,231.25,154.13Z" style="fill:#263238"></path><path d="M231.23,152.07c-.14.15-1-.5-2.26-.49s-2.15.63-2.28.48.08-.34.47-.63a3.18,3.18,0,0,1,1.83-.57,3.05,3.05,0,0,1,1.8.58C231.17,151.73,231.3,152,231.23,152.07Z" style="fill:#263238"></path><path d="M235.76,161.26a8.48,8.48,0,0,1,2-.37c.32,0,.62-.09.67-.31a1.68,1.68,0,0,0-.21-.94l-.95-2.41a41.75,41.75,0,0,1-2.11-6.31,43.11,43.11,0,0,1,2.62,6.12q.47,1.28.9,2.43a1.84,1.84,0,0,1,.17,1.24.83.83,0,0,1-.52.47,2.28,2.28,0,0,1-.54.07A8.18,8.18,0,0,1,235.76,161.26Z" style="fill:#263238"></path><path d="M236.65,175.94a22.83,22.83,0,0,1-12.05-3.18s3.05,6.17,12.05,5.31Z" style="fill:#aa6550"></path><path d="M231.78,148.43c-.13.34-1.37.18-2.82.36s-2.63.58-2.83.28c-.08-.15.12-.46.59-.79a5,5,0,0,1,4.3-.49C231.56,148,231.83,148.27,231.78,148.43Z" style="fill:#263238"></path><path d="M243,148.22c-.22.28-1.08,0-2.11,0s-1.89.19-2.1-.1.05-.43.43-.7a3,3,0,0,1,1.71-.46,2.89,2.89,0,0,1,1.68.56C242.94,147.79,243.06,148.08,243,148.22Z" style="fill:#263238"></path><path d="M235.23,164.12a2.12,2.12,0,0,0-1.87-.78,2,2,0,0,0-1.32.71,1.21,1.21,0,0,0-.08,1.38,1.38,1.38,0,0,0,1.51.38,4.37,4.37,0,0,0,1.48-.88,1.22,1.22,0,0,0,.33-.35.38.38,0,0,0,0-.43" style="fill:#aa6550"></path><path d="M232.31,162.13c.19,0,.19,1.25,1.27,2.14s2.41.75,2.42.92-.29.25-.86.26a3.1,3.1,0,0,1-2-.7,2.73,2.73,0,0,1-1-1.79C232.08,162.44,232.22,162.13,232.31,162.13Z" style="fill:#263238"></path><path d="M243.19,140c-.43,2.84-4.92,3.31-7.75,2.76a9.14,9.14,0,0,1-8.06,3.47,2.55,2.55,0,0,0-1.23.05,2.64,2.64,0,0,0-.93.92,8,8,0,0,1-4.89,3.06,7.22,7.22,0,0,1-5.47,5.94s-.93-.46-.6-4.09a111.58,111.58,0,0,0-.07-11.2L224,136.4l11.77-2.2S243.92,135.14,243.19,140Z" style="fill:#263238"></path><path d="M210.61,155a9.24,9.24,0,0,1,.61-2.53A6.25,6.25,0,0,1,213,150.1a6.47,6.47,0,0,1,3.48-1.47h.15l0-.16a7.94,7.94,0,0,1,2.33-4.12,4.58,4.58,0,0,1,4.92-.84l.28.14.1-.3.11-.32a7.07,7.07,0,0,1,5.8-4.49,7.24,7.24,0,0,1,1.74.05,4.09,4.09,0,0,0,1.77-.09,3.24,3.24,0,0,0,1.34-1,5.53,5.53,0,0,1,1-1,5,5,0,0,1,4.06-.78,7.68,7.68,0,0,1,1.48.59s-.1-.11-.33-.28a4.41,4.41,0,0,0-1.1-.51,5.06,5.06,0,0,0-4.34.68c-.83.52-1.32,1.57-2.26,1.89s-2.14-.19-3.42,0a7.54,7.54,0,0,0-6.25,4.8l-.12.35.38-.16a5.08,5.08,0,0,0-5.5.92,8.27,8.27,0,0,0-2.43,4.41l.19-.18a6.78,6.78,0,0,0-3.67,1.64,6.55,6.55,0,0,0-2.17,4.47A2,2,0,0,0,210.61,155Z" style="fill:#455a64"></path><path d="M226.14,145.47a2,2,0,0,0,.75.25,7.41,7.41,0,0,0,2.13.11,8.68,8.68,0,0,0,6.13-3.3l-.33.08.29.13a6.77,6.77,0,0,0,4,.38,6.59,6.59,0,0,0,2.94-1.5,6.11,6.11,0,0,0,1.37-1.74,1.77,1.77,0,0,0,.28-.77,10.7,10.7,0,0,1-1.89,2.22,6.35,6.35,0,0,1-2.8,1.31,6.55,6.55,0,0,1-3.72-.38l-.27-.13-.2-.09-.13.17a8.81,8.81,0,0,1-5.74,3.26A17.82,17.82,0,0,1,226.14,145.47Z" style="fill:#455a64"></path><path d="M231.21,140.15c0,.16,1.32,0,2.85.41s2.65,1,2.74.87a4.34,4.34,0,0,0-2.62-1.39A4.38,4.38,0,0,0,231.21,140.15Z" style="fill:#455a64"></path><path d="M234.61,139.86c.12.09.58-.29,1.16-.7s1.08-.74,1-.88-.7,0-1.34.45S234.5,139.77,234.61,139.86Z" style="fill:#455a64"></path><path d="M220.64,145.09c.05.14,1.19-.23,2.63-.18s2.55.46,2.61.32a4.79,4.79,0,0,0-5.24-.14Z" style="fill:#455a64"></path><path d="M218.15,149.9a6.72,6.72,0,0,0,3.65-.48,6.65,6.65,0,0,0,3.15-1.91c-.09-.12-1.46.76-3.33,1.41S218.14,149.75,218.15,149.9Z" style="fill:#455a64"></path><path d="M212,153.34a18.38,18.38,0,0,1,2.34-1.31,16.74,16.74,0,0,1,2.64-.46,3.22,3.22,0,0,0-2.82,0C212.61,152.08,211.88,153.29,212,153.34Z" style="fill:#455a64"></path><path d="M212.18,140.43s.15-.3.47-.78a5.33,5.33,0,0,1,1.81-1.59,17.46,17.46,0,0,1,7.85-1.76,32,32,0,0,1,8.08,1.07c2,.51,3.29.9,3.31.82a3.1,3.1,0,0,0-.83-.38c-.56-.22-1.37-.5-2.38-.8a27.81,27.81,0,0,0-8.19-1.24,16.3,16.3,0,0,0-8,2,4.91,4.91,0,0,0-1.8,1.8A1.9,1.9,0,0,0,212.18,140.43Z" style="fill:#455a64"></path><path d="M211.45,145.3a15,15,0,0,1,1.39-2.53,10.89,10.89,0,0,1,5.67-3.78,20.24,20.24,0,0,1,6.93-.53,25.78,25.78,0,0,0,2.93.2,12.31,12.31,0,0,0-2.89-.57,18.06,18.06,0,0,0-7.12.39,10.64,10.64,0,0,0-5.83,4.07,7,7,0,0,0-.94,2A2,2,0,0,0,211.45,145.3Z" style="fill:#455a64"></path><path d="M245.14,149.06a3.19,3.19,0,0,0,1.66-1.24,5.36,5.36,0,0,0-2.29-8.51,3.22,3.22,0,0,0-2.07-.24,13.76,13.76,0,0,1,1.92.58,5.21,5.21,0,0,1,2.14,7.94A16.06,16.06,0,0,1,245.14,149.06Z" style="fill:#455a64"></path><path d="M208.44,163.18c.05-.09-.89-.51-2.23-1.4a6.58,6.58,0,0,1-1.92-2,3.56,3.56,0,0,1-.33-3.15,4.25,4.25,0,0,1,2.18-2.37,4.86,4.86,0,0,1,2.68-.32,9.48,9.48,0,0,1,2.43.88s-.16-.22-.54-.49a5.38,5.38,0,0,0-1.82-.76,5,5,0,0,0-2.95.24,4.62,4.62,0,0,0-2.48,2.64,4,4,0,0,0,.41,3.59,6.41,6.41,0,0,0,2.14,2,11.56,11.56,0,0,0,1.75.87C208.18,163.14,208.42,163.21,208.44,163.18Z" style="fill:#263238"></path><path d="M208,163.25a3.16,3.16,0,0,0-.37.8,19.52,19.52,0,0,0-.71,2.28,12,12,0,0,0-.37,3.56,7.64,7.64,0,0,0,1.45,4.16,5.47,5.47,0,0,0,3.85,2.15,3.94,3.94,0,0,0,3.32-1.35,3.54,3.54,0,0,0,.93-2.24,1.63,1.63,0,0,0-.16-.88c-.05,0,0,.32-.05.86a3.68,3.68,0,0,1-4,3.12,5.08,5.08,0,0,1-3.47-2,7.43,7.43,0,0,1-1.38-3.87,12.41,12.41,0,0,1,.25-3.45C207.71,164.47,208.11,163.28,208,163.25Z" style="fill:#263238"></path><path d="M220.47,150.25c1.21,2.11.52,4.78-.47,7s-2.3,4.42-2.25,6.85c.07,4.07,3.9,7.45,3.62,11.51a6.06,6.06,0,0,1-4.29,5.29c1.85-1.4,1.87-4.23,1-6.38s-4.73-7.74-5.38-10c-2.15-7.48-1.46-8.4,1-11.22" style="fill:#263238"></path><path d="M213.47,156.06c0,.07.54.16,1.41,0a5.85,5.85,0,0,0,4.54-4.7c.15-.87,0-1.41,0-1.41a9.57,9.57,0,0,0-.34,1.33,6.39,6.39,0,0,1-4.27,4.41A9.91,9.91,0,0,0,213.47,156.06Z" style="fill:#455a64"></path><path d="M217.89,178.44s.1-.05.26-.19a3.8,3.8,0,0,0,.6-.69,5.17,5.17,0,0,0,.85-3.26,4.79,4.79,0,0,0-.72-2.26,10.5,10.5,0,0,0-1.8-2,7.58,7.58,0,0,1-1.77-2.19,6.67,6.67,0,0,1-.71-2.89,6.31,6.31,0,0,1,.67-2.9,16.28,16.28,0,0,1,1.57-2.4,17.11,17.11,0,0,0,2.51-4.29,9.17,9.17,0,0,0,.64-3.3,3.86,3.86,0,0,0-.16-1.23,11.31,11.31,0,0,1-.83,4.39,17.64,17.64,0,0,1-2.56,4.13,15.78,15.78,0,0,0-1.63,2.47,6.72,6.72,0,0,0-.74,3.13,7,7,0,0,0,.78,3.13,7.89,7.89,0,0,0,1.89,2.31,9.93,9.93,0,0,1,1.77,1.87,4.51,4.51,0,0,1,.71,2.05,5.23,5.23,0,0,1-.64,3.12C218.19,178.11,217.86,178.41,217.89,178.44Z" style="fill:#455a64"></path><path d="M212.57,155.83s-.23.14-.53.5a6.12,6.12,0,0,0-1,1.73,9.35,9.35,0,0,0,.08,6.48,16.13,16.13,0,0,0,3.6,5.43,9.88,9.88,0,0,0,2,1.78,21.66,21.66,0,0,0-1.74-2,18.07,18.07,0,0,1-3.37-5.35,9.74,9.74,0,0,1-.23-6.18A13.05,13.05,0,0,1,212.57,155.83Z" style="fill:#455a64"></path><path d="M280.71,221.58l-7.53,3.57-9.5,5.11c-3.94-11.53-3.77-23.82-5.18-28.48-4.43-14.64-12.63-15.92-12.63-15.92l0,.12a3,3,0,0,0-.77-.4l-6.92-2.15-.22-3.76-23.39.55-.2,4.72L207,186.17a14.54,14.54,0,0,0-10.75,7.76c-.15.29-.28.6-.41.91-4.82,11.82-15.37,37.83-16.19,40.58-2.84,9.63,7.39,18.08,16.32,16.11a51.7,51.7,0,0,0,5.17-2,8.33,8.33,0,0,0,2.71,6.3,4.16,4.16,0,0,0,2.55,1.25l42.89.25c1.16,0,2.38-1,3.36-2.07a9.89,9.89,0,0,0,6.23.45h0c3.71-.75,7.58-2.84,8.48-3.74l21.75-20.46Zm-75.17,6.54-.39,1.88-2.39.16,2.83-9.45v6.83A2.78,2.78,0,0,1,205.54,228.12Z" style="fill:#38BDF8"></path><path d="M216.65,229.24l-1,.1-2.92.26-9.91.81-.39,0,.13-.37c.31-.93.61-1.89.92-2.89,1.34-4.48,2.48-8.58,3.4-11.51.46-1.47.85-2.65,1.14-3.46a5.41,5.41,0,0,1,.52-1.24,7.45,7.45,0,0,1-.33,1.3c-.26.93-.58,2.1-1,3.5-.82,3-1.9,7.07-3.26,11.56-.3,1-.61,2-.93,2.9l-.26-.34c4-.29,7.44-.51,9.93-.63S216.69,229.11,216.65,229.24Z" style="fill:#263238"></path><path d="M221.46,240a5.56,5.56,0,0,1-1,.59l-2.86,1.47c-2.42,1.22-5.7,3-9.41,4.91a52.67,52.67,0,0,1-9.92,3.86c-1.31.34-2.39.6-3.14.73a4.37,4.37,0,0,1-1.17.17c0-.08,1.62-.47,4.21-1.26a60.5,60.5,0,0,0,9.79-4c3.69-1.86,7-3.63,9.48-4.77,1.23-.58,2.23-1,2.94-1.32A5.62,5.62,0,0,1,221.46,240Z" style="fill:#263238"></path><path d="M248.35,226.43c-.09-.05.8-1.31,1.66-3.61a20,20,0,0,0,1.1-9.36,49.34,49.34,0,0,0-1.06-5.16c-.39-1.58-.72-3-.89-4.25a17.39,17.39,0,0,1-.2-2.94,3.24,3.24,0,0,1,.13-1.07,38.81,38.81,0,0,0,.43,4c.22,1.2.58,2.62,1,4.19a41.13,41.13,0,0,1,1.11,5.22,18.94,18.94,0,0,1-1.27,9.56,16.34,16.34,0,0,1-1.35,2.61A3.64,3.64,0,0,1,248.35,226.43Z" style="fill:#263238"></path><path d="M248.57,227.15a11.33,11.33,0,0,0-.59,4.73,16.52,16.52,0,0,0,1.33,5c.75,1.82,1.8,3.73,2.76,5.82a19,19,0,0,1,1.84,6.24,9.12,9.12,0,0,1-1,5.22,6.84,6.84,0,0,1-2.4,2.66,4.54,4.54,0,0,1-.88.43c-.21.07-.32.1-.33.08s.42-.2,1.1-.68a7.09,7.09,0,0,0,2.19-2.66,9,9,0,0,0,.82-5,19.12,19.12,0,0,0-1.83-6.06c-.95-2.07-2-4-2.73-5.86a16.12,16.12,0,0,1-1.26-5.16,9.56,9.56,0,0,1,.41-3.55,5.2,5.2,0,0,1,.37-.91C248.49,227.25,248.55,227.15,248.57,227.15Z" style="fill:#263238"></path><path d="M248.69,188.45a9.13,9.13,0,0,1,.41,3.76,9,9,0,0,1-.68,3.72,29.3,29.3,0,0,1,.16-3.74A30.09,30.09,0,0,1,248.69,188.45Z" style="fill:#263238"></path><path d="M260.5,243.5a5.75,5.75,0,0,1-.42-2,16.41,16.41,0,0,1,.29-4.92,16.11,16.11,0,0,1,1.74-4.6,5.46,5.46,0,0,1,1.2-1.65,22.13,22.13,0,0,0-2.81,13.17Z" style="fill:#263238"></path><path d="M209.3,195.93c-.1,0-.1-.64-.54-1.54a8.25,8.25,0,0,0-2.54-2.91,8.57,8.57,0,0,0-3.49-1.65,5.76,5.76,0,0,0-.66-.06c-.19,0-.36,0-.5,0s-.41.11-.43.08.1-.12.37-.28a3.46,3.46,0,0,1,.54-.14,4.14,4.14,0,0,1,.72,0,7.71,7.71,0,0,1,3.77,1.61,7.36,7.36,0,0,1,2.56,3.18A2.59,2.59,0,0,1,209.3,195.93Z" style="fill:#263238"></path><g style="opacity:0.30000000000000004"><path d="M208.57,227.22a48.4,48.4,0,0,1-1.16-12.29l-.38.75-1.44,5-.44,9.29,8.3-.36A9.73,9.73,0,0,0,208.57,227.22Z"></path></g><path d="M237.87,184.12a1.24,1.24,0,0,1,0,1A3,3,0,0,1,236,187a27.92,27.92,0,0,1-8.82,1.31,30.22,30.22,0,0,1-8.81-1.35,24.94,24.94,0,0,1-2.53-.94,4.2,4.2,0,0,1-.88-.46c0-.08,1.34.45,3.52,1a34.33,34.33,0,0,0,8.7,1.18,31.66,31.66,0,0,0,8.69-1.13,2.87,2.87,0,0,0,1.88-1.62A3.24,3.24,0,0,0,237.87,184.12Z" style="fill:#263238"></path><path d="M197.76,215.67a9,9,0,0,1-1.41-2.79,9.89,9.89,0,0,1-.93-3,9.35,9.35,0,0,1,1.41,2.79A9.63,9.63,0,0,1,197.76,215.67Z" style="fill:#fafafa"></path><path d="M193,229.09a12.81,12.81,0,0,1-3.32,1.29,12.16,12.16,0,0,1-3.46.8,12.64,12.64,0,0,1,3.31-1.29A12.12,12.12,0,0,1,193,229.09Z" style="fill:#fafafa"></path><path d="M191.85,242.77a8.56,8.56,0,0,1-.17-3,8.75,8.75,0,0,1,.34-3,8.69,8.69,0,0,1,.18,3A8.9,8.9,0,0,1,191.85,242.77Z" style="fill:#fafafa"></path><path d="M208.46,238.74a13.45,13.45,0,0,1-2.33-1.94,12.94,12.94,0,0,1-2.19-2.1,11.38,11.38,0,0,1,4.52,4Z" style="fill:#fafafa"></path><path d="M220.18,231.73c.1.1-.53.94-1.42,1.88s-1.69,1.62-1.8,1.52.53-.94,1.42-1.88S220.07,231.63,220.18,231.73Z" style="fill:#fafafa"></path><path d="M203.79,197.92a18.71,18.71,0,0,1-5.2,3.33,18.12,18.12,0,0,1,5.2-3.33Z" style="fill:#fafafa"></path><path d="M217.08,194.81a13.46,13.46,0,0,1-1.36-2.92,13.66,13.66,0,0,1-1.14-3,8.14,8.14,0,0,1,1.62,2.81A8.44,8.44,0,0,1,217.08,194.81Z" style="fill:#fafafa"></path><path d="M218.31,211.46a9.08,9.08,0,0,1-3.06-1.6,8.88,8.88,0,0,1-2.59-2.28,16.72,16.72,0,0,1,2.88,1.85A16.51,16.51,0,0,1,218.31,211.46Z" style="fill:#fafafa"></path><path d="M227.85,219.56a18.18,18.18,0,0,1-3.77,2.29,18.46,18.46,0,0,1-4,1.83,19.53,19.53,0,0,1,3.78-2.29A19.76,19.76,0,0,1,227.85,219.56Z" style="fill:#fafafa"></path><path d="M232.32,209.85a8,8,0,0,1-.9-2.69,7.71,7.71,0,0,1-.39-2.8,8,8,0,0,1,.9,2.69A7.71,7.71,0,0,1,232.32,209.85Z" style="fill:#fafafa"></path><path d="M244.42,219.06a9.83,9.83,0,0,1-1.68-2.71,10,10,0,0,1-1.21-2.95,10,10,0,0,1,1.68,2.72A10.44,10.44,0,0,1,244.42,219.06Z" style="fill:#fafafa"></path><path d="M242.71,192.6a9.88,9.88,0,0,1-2.44,2.07,10.16,10.16,0,0,1-2.74,1.64,19.49,19.49,0,0,1,5.18-3.71Z" style="fill:#fafafa"></path><path d="M231.41,193.36c-.13.07-.6-.64-1-1.58s-.71-1.74-.58-1.8.6.64,1.05,1.58S231.54,193.3,231.41,193.36Z" style="fill:#fafafa"></path><path d="M224.6,183.37c0,.14-.78.3-1.76.34s-1.78,0-1.79-.18.78-.3,1.77-.34S224.6,183.23,224.6,183.37Z" style="fill:#fafafa"></path><path d="M232.51,183.53c-.11-.09.23-.73.76-1.45s1.06-1.22,1.18-1.13-.23.73-.76,1.45S232.63,183.62,232.51,183.53Z" style="fill:#fafafa"></path><path d="M254.34,204a9.56,9.56,0,0,1-.61-3.12,9.34,9.34,0,0,1-.09-3.17,20,20,0,0,1,.7,6.29Z" style="fill:#fafafa"></path><path d="M256.9,216.45c-.1.1-1.08-.7-2-1.91a5.91,5.91,0,0,1-1.4-2.41,36,36,0,0,1,3.44,4.32Z" style="fill:#fafafa"></path><path d="M253.32,229.2a9.44,9.44,0,0,1,1.22-2.79,9.13,9.13,0,0,1,1.68-2.54,8.93,8.93,0,0,1-1.22,2.79A8.76,8.76,0,0,1,253.32,229.2Z" style="fill:#fafafa"></path><path d="M257.63,247.74a12.35,12.35,0,0,1-1.5-3.28,13.07,13.07,0,0,1-1-3.47,12.35,12.35,0,0,1,1.5,3.28A13.07,13.07,0,0,1,257.63,247.74Z" style="fill:#fafafa"></path><path d="M270.6,241a13.64,13.64,0,0,1-4.84-2.26A13.64,13.64,0,0,1,270.6,241Z" style="fill:#fafafa"></path><path d="M277.89,234.05a6.68,6.68,0,0,1,.14-3.17,6.78,6.78,0,0,1,1.11-3,17.26,17.26,0,0,1-.6,3.08A18.72,18.72,0,0,1,277.89,234.05Z" style="fill:#fafafa"></path><path d="M235,229.55A8.9,8.9,0,0,1,236,226.7a8.68,8.68,0,0,1,1.53-2.63,9.19,9.19,0,0,1-1.06,2.85A8.85,8.85,0,0,1,235,229.55Z" style="fill:#fafafa"></path><path d="M214.27,253.26a8.07,8.07,0,0,1-1.9-2.19,8.31,8.31,0,0,1-1.49-2.49,8.4,8.4,0,0,1,1.91,2.19A8.27,8.27,0,0,1,214.27,253.26Z" style="fill:#fafafa"></path><path d="M224.08,250.67a10.79,10.79,0,0,1,1-3.17,11,11,0,0,1,1.45-3,20.63,20.63,0,0,1-2.42,6.14Z" style="fill:#fafafa"></path><path d="M239.93,253.44a10.81,10.81,0,0,1-5.8-3.25,20.56,20.56,0,0,1,2.9,1.63A22,22,0,0,1,239.93,253.44Z" style="fill:#fafafa"></path><path d="M246.41,243.25a12.41,12.41,0,0,1-1.5-6.61,19.08,19.08,0,0,1,.8,3.29A19.65,19.65,0,0,1,246.41,243.25Z" style="fill:#fafafa"></path><g style="opacity:0.30000000000000004"><path d="M201.29,251.35a10.46,10.46,0,0,0,7.45.68,25.43,25.43,0,0,0,6.92-3.2,12.67,12.67,0,0,1,4-1.85,12.36,12.36,0,0,1,4.83.34c3.75.75,7.66,1.36,11.36.41s7.16-3.83,7.65-7.62c.19-1.53-.32-3.38-1.78-3.87a13.39,13.39,0,0,0-3-.85c-15.9,1.29-37.52,14.17-37.5,14.61"></path></g><polygon points="273.2 431.64 277.23 462.94 263.05 463.84 255.76 433.81 273.2 431.64" style="fill:#b78876"></polygon><path d="M261.72,457.77s10.84,5.67,14.8-1l1.65,2.77,8.47,20.21a2.84,2.84,0,0,1-1.12,3.58,2.74,2.74,0,0,1-2.95-.16c-4.6-3.32-21.43-15.6-21.55-17.56l-.64-5.16a2.65,2.65,0,0,1,1.34-2.63Z" style="fill:#38BDF8"></path><path d="M285.05,483.48l-24.28-19.71.16,1.12c.06,1.24.66,1.65,1.34,2.35,2,2.08,7.49,6.61,20.22,15.89a2.73,2.73,0,0,0,2.56.35Z" style="fill:#fff;opacity:0.6000000000000001"></path><g style="opacity:0.6000000000000001"><path d="M263.43,460a1.67,1.67,0,0,1,.75,2.08,1.6,1.6,0,0,1-2.06.77,1.77,1.77,0,0,1-.79-2.22,1.65,1.65,0,0,1,2.23-.55" style="fill:#fff"></path></g><path d="M277.36,472.74c.17.05.57-1.42,2-2.39a8.47,8.47,0,0,1,3-1c0-.07-.35-.23-1-.23a4.3,4.3,0,0,0-2.32.76,4.21,4.21,0,0,0-1.55,1.87C277.28,472.33,277.3,472.73,277.36,472.74Z" style="fill:#263238"></path><path d="M279.75,476c.14.1.87-.88,2.19-1.47a24,24,0,0,1,2.55-.7,3.06,3.06,0,0,0-2.79.17C280.2,474.7,279.6,476,279.75,476Z" style="fill:#263238"></path><path d="M273.21,468.68a27.91,27.91,0,0,1,3.23-2.49c1.95-1.12,3.82-1.29,3.8-1.47a7.49,7.49,0,0,0-7,4Z" style="fill:#263238"></path><path d="M271.87,462.36c.1.15,1.47-.67,3.37-1s3.47-.09,3.51-.26a6.82,6.82,0,0,0-6.88,1.26Z" style="fill:#263238"></path><path d="M276.32,461.15a2.31,2.31,0,0,0-.28-1,7,7,0,0,0-1.6-2.26,3.08,3.08,0,0,0-1.74-1,1.11,1.11,0,0,0-1.11.63,1.82,1.82,0,0,0,0,1.28,3.89,3.89,0,0,0,4.36,2.33,4.49,4.49,0,0,0,3.45-3.62,1.57,1.57,0,0,0-.33-1.26,1.08,1.08,0,0,0-1.26-.18,3.82,3.82,0,0,0-1.39,1.42,8.22,8.22,0,0,0-1.08,2.55,2.51,2.51,0,0,0-.1,1,12.85,12.85,0,0,1,1.53-3.32,3.53,3.53,0,0,1,1.24-1.22.58.58,0,0,1,.68.1,1.07,1.07,0,0,1,.18.84,4,4,0,0,1-3,3.11,3.36,3.36,0,0,1-3.72-1.93,1.34,1.34,0,0,1,0-.9.6.6,0,0,1,.61-.35,2.82,2.82,0,0,1,1.49.81A10.31,10.31,0,0,1,276.32,461.15Z" style="fill:#263238"></path><polygon points="229.64 430.26 230.04 462.33 212.72 461.67 210.15 430.64 229.64 430.26" style="fill:#b78876"></polygon><path d="M212.42,457.8h0S193.2,465,193,468.51l37.17-.07,0-9.72-1.36.32A27.65,27.65,0,0,1,212.42,457.8Z" style="fill:#38BDF8"></path><g style="opacity:0.6000000000000001"><path d="M225.9,460.55a1.52,1.52,0,0,1,1,1.73,1.46,1.46,0,0,1-1.71,1.06,1.59,1.59,0,0,1-1.1-1.84,1.52,1.52,0,0,1,1.9-.9" style="fill:#fff"></path></g><g style="opacity:0.6000000000000001"><path d="M230.16,468.44l0-3-35.74,1.19s-1.65.72-1.46,1.89Z" style="fill:#fff"></path></g><path d="M211.81,457.61c0,.18.92.26,1.81.84s1.37,1.35,1.54,1.27-.1-1.12-1.2-1.8S211.77,457.44,211.81,457.61Z" style="fill:#263238"></path><path d="M207.92,459.23c0,.17.74.48,1.36,1.25s.8,1.58,1,1.57.29-1-.49-2S207.92,459.05,207.92,459.23Z" style="fill:#263238"></path><path d="M205.71,463.9c.17,0,.42-.87-.05-1.86s-1.32-1.39-1.39-1.24.45.68.82,1.5S205.53,463.88,205.71,463.9Z" style="fill:#263238"></path><path d="M212.22,457.5a3.38,3.38,0,0,0,1.86,0,8.68,8.68,0,0,0,1.95-.6,9.14,9.14,0,0,0,1.06-.57,2.14,2.14,0,0,0,.57-.44.8.8,0,0,0,.08-1,1,1,0,0,0-.8-.41,2.46,2.46,0,0,0-.7.1,6.48,6.48,0,0,0-1.15.4,6.41,6.41,0,0,0-1.72,1.13c-.86.8-1.15,1.48-1.09,1.51s.5-.51,1.38-1.17a7.11,7.11,0,0,1,1.66-.94,6.9,6.9,0,0,1,1.06-.33c.4-.1.73-.11.83.07s0,.09,0,.21a1.88,1.88,0,0,1-.41.32,11,11,0,0,1-1,.56,10.67,10.67,0,0,1-1.8.69A12.35,12.35,0,0,0,212.22,457.5Z" style="fill:#263238"></path><path d="M212.45,457.76c.07,0,.43-.62.49-1.8a6.11,6.11,0,0,0-.25-2,6.49,6.49,0,0,0-.48-1.13,1.55,1.55,0,0,0-1.19-.94.88.88,0,0,0-.78.52,2.93,2.93,0,0,0-.19.68,4.26,4.26,0,0,0,.8,3.18c.73,1,1.49,1.17,1.5,1.11s-.57-.44-1.13-1.36a4.36,4.36,0,0,1-.59-1.75,3.94,3.94,0,0,1,0-1.08c.06-.39.21-.71.36-.67s.5.29.65.61a6.06,6.06,0,0,1,.46,1,6.58,6.58,0,0,1,.37,1.85C212.55,457.05,212.36,457.73,212.45,457.76Z" style="fill:#263238"></path><path d="M263.35,293.62c-.77-17.33-14.08-36.26-14.08-36.26l-20.48-1.72v-.07l-.43,0h0l-23.55,1.92s-10.38,22.62-7.68,49.58,11.81,126.13,11.81,126.13h21.6L231,289.72l21.87,148.37H274.5S264.12,311,263.35,293.62Z" style="fill:#263238"></path><polygon points="206.31 430.78 209.32 445.4 231.32 445.33 232.65 431.86 206.31 430.78" style="fill:#455a64"></polygon><polygon points="251.42 435.45 256.24 451.93 276.72 449.07 275.65 430.54 251.42 435.45" style="fill:#455a64"></polygon><path d="M231.88,289.59s-.11,0-.32,0a2.2,2.2,0,0,1-.85-.38,4.89,4.89,0,0,1-1.63-2.93c-.5-2.79-1-6.64-1.44-10.91s-.77-8.14-1-10.94c-.1-1.41-.17-2.54-.2-3.33a4.8,4.8,0,0,1,0-1.22,6.23,6.23,0,0,1,.2,1.21c.09.88.22,2,.36,3.3.3,2.91.69,6.72,1.12,10.93s.88,8.13,1.29,10.88a5,5,0,0,0,1.39,2.86A3.67,3.67,0,0,0,231.88,289.59Z" style="fill:#455a64"></path><path d="M230.05,258.85s.17-.13.52-.18A2.28,2.28,0,0,1,232,259a2.73,2.73,0,0,1,1.27,1.85,2,2,0,0,1-.23,1.37,2.24,2.24,0,0,1-1.15,1,2.4,2.4,0,0,1-2.68-.57,2.47,2.47,0,0,1-.45-2.2,2.52,2.52,0,0,1,.77-1.29c.28-.22.47-.27.48-.25a3.2,3.2,0,0,0-.89,1.61,2.17,2.17,0,0,0,.45,1.82,2,2,0,0,0,2.13.4,1.61,1.61,0,0,0,1.1-1.77,2.47,2.47,0,0,0-1-1.62A3.44,3.44,0,0,0,230.05,258.85Z" style="fill:#455a64"></path><path d="M219,228.44l-2.09-10.17a1.31,1.31,0,0,1,1.29-1.57l26.31.13a1.31,1.31,0,0,1,1.3,1.45l-2.72,23.3a1.81,1.81,0,0,1-1.82,1.6l-17.16-.13a1.83,1.83,0,0,1-1.75-1.37Z" style="fill:#455a64"></path><path d="M216.65,223.09h0a2.77,2.77,0,0,1,2.59,1.76c.43,1.12,1.06,2.44,1.76,2.82,1.29.7,3.52,1.27,4.7.69s5.87-4.8,6.69-4.33,1.53,1.52.71,2.46-5.17,3.76-4.35,4.7,10-3.19,11.4-2.83,2.23,1.23,1.41,1.8-7.05,2.91-7.4,3.73c0,0,9.39-2.46,9.75-1.88s.94,1.53,0,1.88-9,2.47-9.75,2.82a16.78,16.78,0,0,1-3.63,1.06c-.25,0-2.09.62-3.78,1.2a8.3,8.3,0,0,1-5.85-.15l-1-.39a3.75,3.75,0,0,1-2.32-3.68l.2-3.2-1-2.65Z" style="fill:#b78876"></path><path d="M232.44,220.62a1,1,0,1,1-.95-1A1,1,0,0,1,232.44,220.62Z" style="fill:#fafafa"></path></g></svg>