<svg xmlns="http://www.w3.org/2000/svg" viewBox="0 0 500 500"><g id="freepik--data-points--inject-31"><circle cx="390.5" cy="136.03" r="11.5" transform="translate(200.11 503.11) rotate(-81.79)" style="fill:#38BDF8;opacity:0.5"></circle><circle cx="390.5" cy="136.03" r="7.62" transform="translate(18.19 315.97) rotate(-45)" style="fill:#38BDF8"></circle><circle cx="274.28" cy="310.56" r="11.5" transform="translate(-76.08 531.76) rotate(-80.82)" style="fill:#38BDF8;opacity:0.5"></circle><circle cx="274.28" cy="310.56" r="7.62" transform="translate(-90.84 506.43) rotate(-76.76)" style="fill:#38BDF8"></circle><circle cx="285.37" cy="125.65" r="16.13" transform="translate(115.85 387.35) rotate(-80.83)" style="fill:#38BDF8;opacity:0.5"></circle><circle cx="285.37" cy="125.65" r="10.68" transform="translate(114.35 386.37) rotate(-80.5)" style="fill:#38BDF8"></circle><circle cx="195.64" cy="360.09" r="16.13" style="fill:#38BDF8;opacity:0.5"></circle><circle cx="195.64" cy="360.09" r="10.68" style="fill:#38BDF8"></circle><circle cx="128.71" cy="258.99" r="11.5" style="fill:#38BDF8;opacity:0.5"></circle><circle cx="128.71" cy="258.99" r="7.62" style="fill:#38BDF8"></circle><circle cx="126.36" cy="107" r="11.5" style="fill:#38BDF8;opacity:0.5"></circle><circle cx="126.36" cy="107" r="7.62" style="fill:#38BDF8"></circle><circle cx="382.87" cy="291.39" r="9.15" style="fill:#38BDF8;opacity:0.5"></circle><path d="M388.93,291.39a6.06,6.06,0,1,1-6.06-6.06A6.06,6.06,0,0,1,388.93,291.39Z" style="fill:#38BDF8"></path><path d="M101.33,146.4a6.06,6.06,0,1,1-6.06-6.06A6.06,6.06,0,0,1,101.33,146.4Z" style="fill:#38BDF8;opacity:0.5"></path><circle cx="95.27" cy="146.4" r="4.01" style="fill:#38BDF8"></circle><path d="M381.49,235.84a6.07,6.07,0,1,1-6.07-6.06A6.06,6.06,0,0,1,381.49,235.84Z" style="fill:#38BDF8;opacity:0.5"></path><path d="M379.44,235.84a4,4,0,1,1-4-4A4,4,0,0,1,379.44,235.84Z" style="fill:#38BDF8"></path><circle cx="301.5" cy="243.92" r="6.06" style="fill:#38BDF8;opacity:0.5"></circle><circle cx="301.5" cy="243.92" r="4.01" style="fill:#38BDF8"></circle><path d="M125.19,318.82a6.06,6.06,0,1,1-6.06-6.06A6.06,6.06,0,0,1,125.19,318.82Z" style="fill:#38BDF8;opacity:0.5"></path><path d="M123.14,318.82a4,4,0,1,1-4-4A4,4,0,0,1,123.14,318.82Z" style="fill:#38BDF8"></path><path d="M248.94,81.89a6.06,6.06,0,1,1-6.06-6.07A6.06,6.06,0,0,1,248.94,81.89Z" style="fill:#38BDF8;opacity:0.5"></path><path d="M246.9,81.89a4,4,0,1,1-4-4A4,4,0,0,1,246.9,81.89Z" style="fill:#38BDF8"></path><path d="M303.55,53.74a6.06,6.06,0,1,1-6.06-6.06A6.06,6.06,0,0,1,303.55,53.74Z" style="fill:#38BDF8;opacity:0.5"></path><path d="M301.5,53.74a4,4,0,1,1-4-4A4,4,0,0,1,301.5,53.74Z" style="fill:#38BDF8"></path><path d="M352.6,157.4a2.84,2.84,0,1,1-2.84-2.83A2.84,2.84,0,0,1,352.6,157.4Z" style="fill:#38BDF8"></path><path d="M159.73,318.82a2.84,2.84,0,1,1-2.84-2.84A2.84,2.84,0,0,1,159.73,318.82Z" style="fill:#38BDF8"></path><path d="M156.89,81.89a2.84,2.84,0,1,1-2.83-2.84A2.83,2.83,0,0,1,156.89,81.89Z" style="fill:#38BDF8"></path><path d="M119.13,187.4a2.84,2.84,0,1,1-2.84-2.84A2.84,2.84,0,0,1,119.13,187.4Z" style="fill:#38BDF8"></path><path d="M421.83,215.3a2.84,2.84,0,1,1-2.84-2.83A2.84,2.84,0,0,1,421.83,215.3Z" style="fill:#38BDF8"></path><path d="M184.36,230.05a2.84,2.84,0,1,1-2.83-2.84A2.84,2.84,0,0,1,184.36,230.05Z" style="fill:#38BDF8"></path><circle cx="80.68" cy="242.03" r="2.84" style="fill:#38BDF8"></circle><path d="M355.44,347.08a2.84,2.84,0,1,1-2.84-2.84A2.84,2.84,0,0,1,355.44,347.08Z" style="fill:#38BDF8"></path><path d="M252.78,277.6a2.84,2.84,0,1,1-2.84-2.84A2.84,2.84,0,0,1,252.78,277.6Z" style="fill:#38BDF8"></path><path d="M247.07,383.07a2.84,2.84,0,1,1-2.84-2.84A2.84,2.84,0,0,1,247.07,383.07Z" style="fill:#38BDF8"></path><path d="M219.62,133.19a2.84,2.84,0,1,1-2.84-2.83A2.84,2.84,0,0,1,219.62,133.19Z" style="fill:#38BDF8"></path><path d="M220.52,46.36a2.84,2.84,0,1,1-2.83-2.84A2.83,2.83,0,0,1,220.52,46.36Z" style="fill:#38BDF8"></path><path d="M351.2,90.78A2.84,2.84,0,1,1,348.36,88,2.84,2.84,0,0,1,351.2,90.78Z" style="fill:#38BDF8"></path><path d="M195.62,360.25l-.07-.08L156.8,318.9,80.55,242.08V242l14.59-95.67,0,0,31.09-39.4L154,81.79l63.75-35.6.07.1L243,81.81l42.41,43.68,63-34.86.07.07L390.62,136l28.51,79.32,0,.05L383,291.5h-.06L274.33,310.68ZM80.81,242,157,318.73l38.68,41.2,78.6-49.49,108.53-19.17,36.07-76-28.47-79.2L348.34,90.94l-63,34.86-.07-.06L242.79,82,217.65,46.52,154.12,82l-27.67,25.1L95.39,146.45Z" style="fill:#38BDF8"></path><path d="M352.65,347.24l-.1-.05L274.2,310.66l0,0-24.33-32.95L181.6,230.25l-24.68,88.92-.14-.3L128.58,259l-12.42-71.62,0,0L154,81.74l.11,0L233.55,100l9.26-18.21h.09l105.59,8.91v.11l.75,35.67,41.29,9.46,0,.24-41.13-4.06.53,25.34,0,0-48.14,86.31,73.8-8.07,0,.12L383,291.41l0,0Zm-78.29-36.78,78.19,36.45,30.2-55.55L375.32,236l-74,8.09.12-.21,48.24-86.49-.53-25.3-63.75-6.3-68.79,7.57.1-.2,16.76-32.95L154.14,82,116.42,187.41,128.83,259l28,59.51,24.59-88.62.15.11L250,277.52Zm75-178.62,39.2,3.87-39.31-9ZM233.68,100.25,217,133l68.36-7.52,63.74,6.3-.11-5.17Zm.12-.23L349,126.4l-.75-35.5L243,82Z" style="fill:#38BDF8"></path><polygon points="348.29 90.88 297.42 53.84 297.56 53.64 348.44 90.68 348.29 90.88" style="fill:#38BDF8"></polygon><path d="M244.22,383.21l0,0-48.56-23-.89.08.61-.22L119,318.91l0,0L80.59,242.14l-.46-.17.48-.05,35.54-54.53-21.05-41,.12-.05,65.35-28.57-6.7-36.15.26.22L185,107l32.06-14,.49-46.81h.14l80.23,7.43-.38.19L242.94,82,217.32,93.19l-.42,40.26-.2-.16-31.73-26-24.12,10.54,20.82,112.29h-.13L81.23,242.1l47.52,16.77,121.16,18.6,51.64-33.73.07.12L334,309.19l48.77-17.89,3-60.17L375.48,236l-.11-.22,10.35-4.88,2-41.5-38.22-32,.16-.09,40.94-21.47L388,189.23l31.21,26.1-.17.09L386,231l-3,60.46-.08,0-48.83,17.92,18.7,37.76-.16,0Zm-48.1-23,48.12,22.77,107.33-35.65Zm-76.89-41.44L195.65,360l138.09-50.67L301.46,244.1,250,277.73h-.05l-121.23-18.6L80.93,242.26Zm214.62-9.22-137.3,50.38L352.41,347Zm-238.41-163,21,40.95,0,.06L80.93,241.88l100.45-11.94L160.62,118ZM388,189.55l-2,41.18,32.78-15.46Zm-38-32.12L387.77,189l2.6-52.79ZM185.23,107.22l31.43,25.71.41-39.63Zm-31-25,6.57,35.42,23.94-10.46Zm63.57-35.71-.48,46.43,25.5-11.15,54.22-27.94Z" style="fill:#38BDF8"></path><rect x="294.33" y="123.16" width="0.25" height="37.4" transform="translate(-31.82 161.13) rotate(-29.1)" style="fill:#38BDF8"></rect><polygon points="382.85 291.6 361.02 276.02 361.16 275.82 382.99 291.4 382.85 291.6" style="fill:#38BDF8"></polygon><rect x="176.88" y="336.2" width="47.9" height="0.25" transform="translate(-166.08 473.52) rotate(-79.66)" style="fill:#38BDF8"></rect><rect x="175.2" y="312.63" width="60.01" height="0.25" style="fill:#38BDF8"></rect><path d="M326.82,167.12a18,18,0,0,1-11,16.6l-7-16.6Z" style="fill:#38BDF8"></path><path d="M306.49,165.89l7.05,16.59s0,0,0,0c-.55.22-1.1.43-1.66.6a18,18,0,0,1-23.36-17.21,18.25,18.25,0,0,1,.81-5.36,18,18,0,0,1,11.85-11.84,18,18,0,0,1,22.57,11.84,18.59,18.59,0,0,1,.81,5.36Z" style="fill:#38BDF8"></path><path d="M306.49,165.89l7.05,16.59s0,0,0,0c-.55.22-1.1.43-1.66.6a18.07,18.07,0,0,1-10.7,0,18,18,0,1,1,22.57-22.57,18.59,18.59,0,0,1,.81,5.36Z" style="fill:#a6a6a6"></path><path d="M306.5,165.89l-11.75,13.66a18,18,0,1,1,29.76-13.66Z" style="fill:#455a64"></path><rect x="332.03" y="258.63" width="3.94" height="20.02" style="fill:#38BDF8"></rect><rect x="338.8" y="261.96" width="3.94" height="16.7" style="fill:#38BDF8"></rect><rect x="345.58" y="268.03" width="3.94" height="10.63" style="fill:#38BDF8"></rect><rect x="352.35" y="261.67" width="3.94" height="16.99" style="fill:#38BDF8"></rect><rect x="359.12" y="264.46" width="3.94" height="14.2" style="fill:#38BDF8"></rect><rect x="365.89" y="255.84" width="3.94" height="22.81" style="fill:#38BDF8"></rect><path d="M329.75,254.45l0,6.05,0,6.05,0,12.11-.1-.1c9.57,0,19.14,0,28.71,0l8,0,7.09.06-7.09,0-8,0c-9.57,0-19.14,0-28.71,0h-.1v-.09l0-12.11,0-6.05Z" style="fill:#a6a6a6"></path><path d="M328.88,255.84a3.5,3.5,0,0,1,1.74,0,3.5,3.5,0,0,1-1.74,0Z" style="fill:#a6a6a6"></path><path d="M328.88,258.24a3.7,3.7,0,0,1,.87-.11,3.24,3.24,0,0,1,.87.11,3.5,3.5,0,0,1-1.74,0Z" style="fill:#a6a6a6"></path><path d="M328.88,260.64a3.5,3.5,0,0,1,1.74,0,3.21,3.21,0,0,1-1.74,0Z" style="fill:#a6a6a6"></path><path d="M328.88,263.05a3.21,3.21,0,0,1,1.74,0,3.5,3.5,0,0,1-1.74,0Z" style="fill:#a6a6a6"></path><path d="M328.88,265.45a3.5,3.5,0,0,1,1.74,0,3.5,3.5,0,0,1-1.74,0Z" style="fill:#a6a6a6"></path><path d="M328.88,267.85a3.5,3.5,0,0,1,1.74,0,3.5,3.5,0,0,1-1.74,0Z" style="fill:#a6a6a6"></path><path d="M328.88,270.25a3.7,3.7,0,0,1,.87-.11,2.89,2.89,0,0,1,.87.11,3.5,3.5,0,0,1-1.74,0Z" style="fill:#a6a6a6"></path><path d="M328.88,272.65a3.5,3.5,0,0,1,1.74,0,3.21,3.21,0,0,1-1.74,0Z" style="fill:#a6a6a6"></path><path d="M328.88,275.06a3.21,3.21,0,0,1,1.74,0,3.5,3.5,0,0,1-1.74,0Z" style="fill:#a6a6a6"></path><path d="M185.89,312.76a10.67,10.67,0,1,1-1.41-5.32A10.69,10.69,0,0,1,185.89,312.76Z" style="fill:#dbdbdb"></path><path d="M184.48,307.44l-9.28,5.32V302.07A10.7,10.7,0,0,1,184.48,307.44Z" style="fill:#38BDF8"></path><circle cx="175.2" cy="312.76" r="7.39" transform="translate(-161.53 435.72) rotate(-80.8)" style="fill:#fff"></circle><rect x="172.13" y="311.11" width="6.15" height="0.87" style="fill:#263238"></rect><rect x="170.6" y="313.53" width="9.2" height="0.87" style="fill:#a6a6a6"></rect><path d="M215.79,312.76a10.05,10.05,0,0,1-.12,1.56,10.62,10.62,0,1,1,.12-1.56Z" style="fill:#dbdbdb"></path><path d="M215.79,312.76a10.05,10.05,0,0,1-.12,1.56l-10.57-1.56V302.07a10.67,10.67,0,0,1,10.69,10.69Z" style="fill:#38BDF8"></path><circle cx="205.1" cy="312.76" r="7.39" transform="translate(-146.31 440.78) rotate(-76.76)" style="fill:#fff"></circle><rect x="202.03" y="311.11" width="6.15" height="0.87" style="fill:#263238"></rect><rect x="200.5" y="313.53" width="9.2" height="0.87" style="fill:#a6a6a6"></rect><path d="M245.9,312.76a10.7,10.7,0,1,1-1.42-5.32A10.68,10.68,0,0,1,245.9,312.76Z" style="fill:#dbdbdb"></path><path d="M245.9,312.76a10.68,10.68,0,0,1-6.86,10l-3.83-10V302.07a10.7,10.7,0,0,1,10.69,10.69Z" style="fill:#38BDF8"></path><path d="M242.6,312.76a7.39,7.39,0,1,1-7.39-7.39A7.39,7.39,0,0,1,242.6,312.76Z" style="fill:#fff"></path><rect x="232.13" y="311.11" width="6.15" height="0.87" style="fill:#263238"></rect><rect x="230.61" y="313.53" width="9.2" height="0.87" style="fill:#a6a6a6"></rect><rect x="152.17" y="141.36" width="4.18" height="27.11" transform="translate(308.53 309.84) rotate(180)" style="fill:#ebebeb"></rect><rect x="152.17" y="147.88" width="4.18" height="20.6" transform="translate(308.53 316.36) rotate(180)" style="fill:#38BDF8"></rect><rect x="145.89" y="141.36" width="4.18" height="27.11" transform="translate(295.95 309.84) rotate(180)" style="fill:#ebebeb"></rect><rect x="145.89" y="150.62" width="4.18" height="17.85" transform="translate(295.95 319.1) rotate(180)" style="fill:#455a64"></rect><rect x="139.6" y="141.36" width="4.18" height="27.11" transform="translate(283.37 309.84) rotate(180)" style="fill:#ebebeb"></rect><rect x="139.6" y="160.23" width="4.18" height="8.25" transform="translate(283.37 328.71) rotate(180)" style="fill:#38BDF8"></rect><rect x="133.31" y="141.36" width="4.18" height="27.11" transform="translate(270.79 309.84) rotate(180)" style="fill:#ebebeb"></rect><rect x="133.31" y="145.85" width="4.18" height="22.63" transform="translate(270.79 314.32) rotate(180)" style="fill:#455a64"></rect><rect x="127.02" y="141.36" width="4.18" height="27.11" transform="translate(258.22 309.84) rotate(180)" style="fill:#ebebeb"></rect><rect x="127.02" y="144.05" width="4.18" height="24.43" transform="translate(258.22 312.53) rotate(180)" style="fill:#38BDF8"></rect><rect x="120.73" y="141.36" width="4.18" height="27.11" transform="translate(245.64 309.84) rotate(180)" style="fill:#ebebeb"></rect><rect x="120.73" y="153" width="4.18" height="15.48" transform="translate(245.64 321.48) rotate(180)" style="fill:#455a64"></rect><polygon points="117.94 141.36 118 148.14 118.05 154.92 118.09 168.48 117.94 168.33 128.24 168.32 138.54 168.34 148.84 168.39 159.14 168.48 148.84 168.57 138.54 168.62 128.24 168.63 117.94 168.63 117.79 168.63 117.79 168.48 117.84 154.92 117.88 148.14 117.94 141.36" style="fill:#ebebeb"></polygon><path d="M117.34,141.36a2.64,2.64,0,0,1,.62-.08,2.57,2.57,0,0,1,.62.08,1.86,1.86,0,0,1-.62.08A1.89,1.89,0,0,1,117.34,141.36Z" style="fill:#ebebeb"></path><path d="M117.34,144.05A2.64,2.64,0,0,1,118,144a2.57,2.57,0,0,1,.62.08,1.86,1.86,0,0,1-.62.08A1.89,1.89,0,0,1,117.34,144.05Z" style="fill:#ebebeb"></path><path d="M117.34,146.74a2.2,2.2,0,0,1,.62-.08,2.15,2.15,0,0,1,.62.08,2.15,2.15,0,0,1-.62.08A2.2,2.2,0,0,1,117.34,146.74Z" style="fill:#ebebeb"></path><path d="M117.34,149.43a2.2,2.2,0,0,1,.62-.08,2.15,2.15,0,0,1,.62.08,2.15,2.15,0,0,1-.62.08A2.2,2.2,0,0,1,117.34,149.43Z" style="fill:#ebebeb"></path><path d="M117.34,152.12A2.2,2.2,0,0,1,118,152a2.15,2.15,0,0,1,.62.08,2.15,2.15,0,0,1-.62.08A2.2,2.2,0,0,1,117.34,152.12Z" style="fill:#ebebeb"></path><path d="M117.34,154.81a1.89,1.89,0,0,1,.62-.08,1.86,1.86,0,0,1,.62.08,2.57,2.57,0,0,1-.62.08A2.64,2.64,0,0,1,117.34,154.81Z" style="fill:#ebebeb"></path><path d="M117.34,157.5a1.89,1.89,0,0,1,.62-.08,1.86,1.86,0,0,1,.62.08,2.57,2.57,0,0,1-.62.08A2.64,2.64,0,0,1,117.34,157.5Z" style="fill:#ebebeb"></path><path d="M117.34,160.18a2.64,2.64,0,0,1,.62-.08,2.57,2.57,0,0,1,.62.08,1.86,1.86,0,0,1-.62.08A1.89,1.89,0,0,1,117.34,160.18Z" style="fill:#ebebeb"></path><path d="M117.34,162.87a2.64,2.64,0,0,1,.62-.08,2.57,2.57,0,0,1,.62.08,1.86,1.86,0,0,1-.62.08A1.89,1.89,0,0,1,117.34,162.87Z" style="fill:#ebebeb"></path><path d="M117.34,165.56a2.2,2.2,0,0,1,.62-.08,2.15,2.15,0,0,1,.62.08,2.15,2.15,0,0,1-.62.08A2.2,2.2,0,0,1,117.34,165.56Z" style="fill:#ebebeb"></path><rect x="394.22" y="183.47" width="27.94" height="14.45" style="fill:#38BDF8"></rect><rect x="397.43" y="186.79" width="21.5" height="0.59" style="fill:#fff"></rect><rect x="397.43" y="189.2" width="21.5" height="0.59" style="fill:#fff"></rect><rect x="397.43" y="191.61" width="21.5" height="0.59" style="fill:#fff"></rect><rect x="397.43" y="194.01" width="21.5" height="0.59" style="fill:#fff"></rect><rect x="94.33" y="283.25" width="27.94" height="14.45" style="fill:#38BDF8"></rect><rect x="97.55" y="286.57" width="21.5" height="0.59" style="fill:#fff"></rect><rect x="97.55" y="288.98" width="21.5" height="0.59" style="fill:#fff"></rect><rect x="97.55" y="291.38" width="21.5" height="0.59" style="fill:#fff"></rect><rect x="97.55" y="293.79" width="21.5" height="0.59" style="fill:#fff"></rect><rect x="202.72" y="90.49" width="27.94" height="14.45" style="fill:#38BDF8"></rect><rect x="205.94" y="93.81" width="21.5" height="0.59" style="fill:#fff"></rect><rect x="205.94" y="96.22" width="21.5" height="0.59" style="fill:#fff"></rect><rect x="205.94" y="98.63" width="21.5" height="0.59" style="fill:#fff"></rect><rect x="205.94" y="101.04" width="21.5" height="0.59" style="fill:#fff"></rect><rect x="257.81" y="349.91" width="27.94" height="14.45" style="fill:#38BDF8"></rect><rect x="261.03" y="353.24" width="21.5" height="0.59" style="fill:#fff"></rect><rect x="261.03" y="355.64" width="21.5" height="0.59" style="fill:#fff"></rect><rect x="261.03" y="358.05" width="21.5" height="0.59" style="fill:#fff"></rect><rect x="261.03" y="360.46" width="21.5" height="0.59" style="fill:#fff"></rect></g></svg>