<svg xmlns="http://www.w3.org/2000/svg" viewBox="0 0 500 500"><g id="freepik--Data--inject-30"><path d="M25.66,333.64l.4-.31,1.22-.91L32,328.94l17.82-13,61.81-44.85-.09.28a139.19,139.19,0,0,1-8.12-46.78,146,146,0,0,1,.84-15.75,143.47,143.47,0,0,1,2.56-15.09,133.86,133.86,0,0,1,9.28-27.37,139.35,139.35,0,0,1,54.11-60.1l4.5-2.58c1.31-.74,2.46-1.28,3.37-1.75l2.08-1c.47-.24.72-.34.72-.34s-.23.14-.7.39l-2,1.09c-.9.49-2.05,1-3.35,1.79l-4.46,2.62a140.4,140.4,0,0,0-53.78,60.13,133.35,133.35,0,0,0-9.22,27.28,140,140,0,0,0-2.54,15,144.91,144.91,0,0,0-.84,15.69A139,139,0,0,0,112,271.2l.06.18-.15.11L50,316.19l-17.9,12.88c-2.09,1.48-3.69,2.63-4.79,3.42l-1.24.87Z" style="fill:#38BDF8"></path><path d="M140.64,72.62s-.19.11-.57.3l-1.68.82-2.73,1.33c-1.09.52-2.28,1.24-3.66,2a125.18,125.18,0,0,0-21.57,15.2,139,139,0,0,0-12.88,12.92A151.6,151.6,0,0,0,85,121.89a161.33,161.33,0,0,0-19.59,43.64,210.5,210.5,0,0,0-7.63,47.32A259.52,259.52,0,0,0,58.68,252,133.35,133.35,0,0,0,63.77,278c.93,3,1.78,5.26,2.37,6.79l.69,1.74.22.6s-.1-.19-.27-.58L66,284.78c-.62-1.52-1.5-3.79-2.46-6.77a129.71,129.71,0,0,1-5.27-25.93,256.46,256.46,0,0,1-1.05-39.25,208.6,208.6,0,0,1,7.61-47.44,161.23,161.23,0,0,1,19.68-43.76,151.3,151.3,0,0,1,12.68-16.74,137,137,0,0,1,13-12.92,122.62,122.62,0,0,1,21.72-15.1c1.38-.73,2.58-1.43,3.68-1.93l2.76-1.29,1.7-.78Z" style="fill:#38BDF8"></path><path d="M173.07,31s.05.05.13.17l.35.51,1.3,2,4.85,7.66c4.14,6.62,10,16,16.87,26.93l-.27-.1a179.34,179.34,0,0,1,28.75-5.4A181.78,181.78,0,0,1,253.59,62a176.69,176.69,0,0,1,23.16,2.78l2.39.44,2.25.49,4.13.92c2.55.67,4.75,1.2,6.54,1.71l4.09,1.24,1.06.34a1.59,1.59,0,0,1,.35.13,2.26,2.26,0,0,1-.37-.08l-1.07-.29L292,68.54c-1.79-.48-4-1-6.55-1.63L281.32,66l-2.25-.47-2.39-.42a179.56,179.56,0,0,0-23.11-2.67,183.6,183.6,0,0,0-28.47.79,180.93,180.93,0,0,0-28.67,5.34l-.18,0-.09-.15c-6.81-11-12.6-20.39-16.71-27-2-3.3-3.62-5.92-4.73-7.74l-1.24-2.06-.31-.54A1.94,1.94,0,0,1,173.07,31Z" style="fill:#38BDF8"></path><path d="M426.94,164.9a1,1,0,0,1-.11-.28l-.27-.85c-.24-.78-.57-1.86-1-3.25s-.91-3.15-1.62-5.12l-1.08-3.18c-.2-.56-.39-1.14-.6-1.73l-.7-1.8c-1-2.45-2-5.16-3.28-8-.65-1.41-1.25-2.9-2-4.38L414,131.79a161.25,161.25,0,0,0-11.92-19.26,169.21,169.21,0,0,0-14.64-17.29c-1.23-1.24-2.43-2.44-3.59-3.62s-2.38-2.22-3.51-3.28c-2.24-2.15-4.47-4-6.46-5.71l-1.47-1.26L371,80.23l-2.62-2.1c-1.62-1.33-3.08-2.39-4.26-3.28l-2.71-2-.7-.54-.23-.2s.1,0,.26.15l.73.51,2.77,2c1.2.86,2.68,1.9,4.32,3.21L371.21,80l1.45,1.13,1.47,1.25c2,1.71,4.27,3.53,6.52,5.67,1.14,1.06,2.35,2.12,3.54,3.27l3.61,3.61a165.41,165.41,0,0,1,14.72,17.32,156.23,156.23,0,0,1,11.92,19.35l2.28,4.58c.73,1.48,1.33,3,2,4.39,1.31,2.83,2.28,5.55,3.23,8,.24.62.47,1.22.69,1.81s.39,1.18.58,1.74c.37,1.13.72,2.2,1.05,3.19.69,2,1.15,3.74,1.54,5.16s.68,2.5.89,3.29c.09.35.16.63.22.85Z" style="fill:#38BDF8"></path><path d="M389.37,442.48s-.06-.09-.16-.28l-.42-.84c-.38-.77-.91-1.87-1.6-3.29-1.4-2.91-3.41-7.11-5.93-12.38-5.05-10.61-12.14-25.54-20.38-42.89l-.09-.18.17-.13a194.18,194.18,0,0,0,21.73-19.16c1.18-1.15,2.28-2.35,3.37-3.55l3.27-3.56,3.08-3.62c1-1.21,2-2.38,3-3.61,1.89-2.45,3.82-4.81,5.52-7.25l2.58-3.59c.82-1.2,1.6-2.41,2.39-3.59a195.71,195.71,0,0,0,14.68-26.38c1.84-3.89,3.26-7.52,4.55-10.68s2.2-6,3-8.24,1.3-4.05,1.69-5.28c.2-.58.35-1,.46-1.37a4.42,4.42,0,0,1,.17-.46s0,.16-.12.48-.23.79-.41,1.38c-.37,1.24-.91,3-1.6,5.31s-1.74,5.07-2.92,8.28-2.67,6.83-4.49,10.73a193.84,193.84,0,0,1-14.62,26.5c-.79,1.18-1.56,2.4-2.39,3.6l-2.58,3.6c-1.7,2.46-3.63,4.82-5.53,7.27-.93,1.24-2,2.42-3,3.63s-2.05,2.41-3.08,3.64l-3.28,3.56c-1.09,1.2-2.19,2.41-3.37,3.56a193.39,193.39,0,0,1-21.82,19.2l.08-.3,20.21,43L387.33,438c.66,1.44,1.18,2.55,1.53,3.33l.39.87Z" style="fill:#38BDF8"></path><g style="opacity:0.8"><path d="M25.66,333.64l.4-.31,1.22-.91L32,328.94l17.82-13,61.81-44.85-.09.28a139.19,139.19,0,0,1-8.12-46.78,146,146,0,0,1,.84-15.75,143.47,143.47,0,0,1,2.56-15.09,133.86,133.86,0,0,1,9.28-27.37,139.35,139.35,0,0,1,54.11-60.1l4.5-2.58c1.31-.74,2.46-1.28,3.37-1.75l2.08-1c.47-.24.72-.34.72-.34s-.23.14-.7.39l-2,1.09c-.9.49-2.05,1-3.35,1.79l-4.46,2.62a140.4,140.4,0,0,0-53.78,60.13,133.35,133.35,0,0,0-9.22,27.28,140,140,0,0,0-2.54,15,144.91,144.91,0,0,0-.84,15.69A139,139,0,0,0,112,271.2l.06.18-.15.11L50,316.19l-17.9,12.88c-2.09,1.48-3.69,2.63-4.79,3.42l-1.24.87Z" style="fill:#fff"></path><path d="M140.64,72.62s-.19.11-.57.3l-1.68.82-2.73,1.33c-1.09.52-2.28,1.24-3.66,2a125.18,125.18,0,0,0-21.57,15.2,139,139,0,0,0-12.88,12.92A151.6,151.6,0,0,0,85,121.89a161.33,161.33,0,0,0-19.59,43.64,210.5,210.5,0,0,0-7.63,47.32A259.52,259.52,0,0,0,58.68,252,133.35,133.35,0,0,0,63.77,278c.93,3,1.78,5.26,2.37,6.79l.69,1.74.22.6s-.1-.19-.27-.58L66,284.78c-.62-1.52-1.5-3.79-2.46-6.77a129.71,129.71,0,0,1-5.27-25.93,256.46,256.46,0,0,1-1.05-39.25,208.6,208.6,0,0,1,7.61-47.44,161.23,161.23,0,0,1,19.68-43.76,151.3,151.3,0,0,1,12.68-16.74,137,137,0,0,1,13-12.92,122.62,122.62,0,0,1,21.72-15.1c1.38-.73,2.58-1.43,3.68-1.93l2.76-1.29,1.7-.78Z" style="fill:#fff"></path><path d="M173.07,31s.05.05.13.17l.35.51,1.3,2,4.85,7.66c4.14,6.62,10,16,16.87,26.93l-.27-.1a179.34,179.34,0,0,1,28.75-5.4A181.78,181.78,0,0,1,253.59,62a176.69,176.69,0,0,1,23.16,2.78l2.39.44,2.25.49,4.13.92c2.55.67,4.75,1.2,6.54,1.71l4.09,1.24,1.06.34a1.59,1.59,0,0,1,.35.13,2.26,2.26,0,0,1-.37-.08l-1.07-.29L292,68.54c-1.79-.48-4-1-6.55-1.63L281.32,66l-2.25-.47-2.39-.42a179.56,179.56,0,0,0-23.11-2.67,183.6,183.6,0,0,0-28.47.79,180.93,180.93,0,0,0-28.67,5.34l-.18,0-.09-.15c-6.81-11-12.6-20.39-16.71-27-2-3.3-3.62-5.92-4.73-7.74l-1.24-2.06-.31-.54A1.94,1.94,0,0,1,173.07,31Z" style="fill:#fff"></path><path d="M426.94,164.9a1,1,0,0,1-.11-.28l-.27-.85c-.24-.78-.57-1.86-1-3.25s-.91-3.15-1.62-5.12l-1.08-3.18c-.2-.56-.39-1.14-.6-1.73l-.7-1.8c-1-2.45-2-5.16-3.28-8-.65-1.41-1.25-2.9-2-4.38L414,131.79a161.25,161.25,0,0,0-11.92-19.26,169.21,169.21,0,0,0-14.64-17.29c-1.23-1.24-2.43-2.44-3.59-3.62s-2.38-2.22-3.51-3.28c-2.24-2.15-4.47-4-6.46-5.71l-1.47-1.26L371,80.23l-2.62-2.1c-1.62-1.33-3.08-2.39-4.26-3.28l-2.71-2-.7-.54-.23-.2s.1,0,.26.15l.73.51,2.77,2c1.2.86,2.68,1.9,4.32,3.21L371.21,80l1.45,1.13,1.47,1.25c2,1.71,4.27,3.53,6.52,5.67,1.14,1.06,2.35,2.12,3.54,3.27l3.61,3.61a165.41,165.41,0,0,1,14.72,17.32,156.23,156.23,0,0,1,11.92,19.35l2.28,4.58c.73,1.48,1.33,3,2,4.39,1.31,2.83,2.28,5.55,3.23,8,.24.62.47,1.22.69,1.81s.39,1.18.58,1.74c.37,1.13.72,2.2,1.05,3.19.69,2,1.15,3.74,1.54,5.16s.68,2.5.89,3.29c.09.35.16.63.22.85Z" style="fill:#fff"></path><path d="M389.37,442.48s-.06-.09-.16-.28l-.42-.84c-.38-.77-.91-1.87-1.6-3.29-1.4-2.91-3.41-7.11-5.93-12.38-5.05-10.61-12.14-25.54-20.38-42.89l-.09-.18.17-.13a194.18,194.18,0,0,0,21.73-19.16c1.18-1.15,2.28-2.35,3.37-3.55l3.27-3.56,3.08-3.62c1-1.21,2-2.38,3-3.61,1.89-2.45,3.82-4.81,5.52-7.25l2.58-3.59c.82-1.2,1.6-2.41,2.39-3.59a195.71,195.71,0,0,0,14.68-26.38c1.84-3.89,3.26-7.52,4.55-10.68s2.2-6,3-8.24,1.3-4.05,1.69-5.28c.2-.58.35-1,.46-1.37a4.42,4.42,0,0,1,.17-.46s0,.16-.12.48-.23.79-.41,1.38c-.37,1.24-.91,3-1.6,5.31s-1.74,5.07-2.92,8.28-2.67,6.83-4.49,10.73a193.84,193.84,0,0,1-14.62,26.5c-.79,1.18-1.56,2.4-2.39,3.6l-2.58,3.6c-1.7,2.46-3.63,4.82-5.53,7.27-.93,1.24-2,2.42-3,3.63s-2.05,2.41-3.08,3.64l-3.28,3.56c-1.09,1.2-2.19,2.41-3.37,3.56a193.39,193.39,0,0,1-21.82,19.2l.08-.3,20.21,43L387.33,438c.66,1.44,1.18,2.55,1.53,3.33l.39.87Z" style="fill:#fff"></path></g><circle cx="324.08" cy="151.51" r="4.29" style="fill:#38BDF8"></circle><path d="M302.42,70.14a4.3,4.3,0,1,1-4.29-4.3A4.29,4.29,0,0,1,302.42,70.14Z" style="fill:#38BDF8"></path><path d="M430.83,165.07a4.3,4.3,0,1,1-4.29-4.29A4.29,4.29,0,0,1,430.83,165.07Z" style="fill:#38BDF8"></path><path d="M208.9,365.74a4.29,4.29,0,1,1-4.29-4.3A4.29,4.29,0,0,1,208.9,365.74Z" style="fill:#38BDF8"></path><circle cx="149.76" cy="362.63" r="4.29" style="fill:#38BDF8"></circle><circle cx="385.07" cy="272.29" r="4.29" style="fill:#38BDF8"></circle><path d="M67.53,167.29A4.29,4.29,0,1,1,63.24,163,4.29,4.29,0,0,1,67.53,167.29Z" style="fill:#38BDF8"></path><path d="M308.42,201.6a4.29,4.29,0,1,1-4.29-4.3A4.29,4.29,0,0,1,308.42,201.6Z" style="fill:#38BDF8"></path><circle cx="391.4" cy="199.85" r="4.29" style="fill:#38BDF8"></circle><path d="M114.08,183.5a4.29,4.29,0,1,1-4.29-4.29A4.3,4.3,0,0,1,114.08,183.5Z" style="fill:#38BDF8"></path><circle cx="113.14" cy="126.67" r="4.29" style="fill:#38BDF8"></circle><path d="M69.2,289.23a2.15,2.15,0,1,1-2.15-2.15A2.14,2.14,0,0,1,69.2,289.23Z" style="fill:#38BDF8"></path><path d="M105.5,227a2.15,2.15,0,1,1-2.15-2.15A2.14,2.14,0,0,1,105.5,227Z" style="fill:#38BDF8"></path><path d="M147.13,302.23a2.15,2.15,0,1,1-2.15-2.15A2.14,2.14,0,0,1,147.13,302.23Z" style="fill:#38BDF8"></path><path d="M125.22,226a2.15,2.15,0,1,1-2.15-2.15A2.14,2.14,0,0,1,125.22,226Z" style="fill:#38BDF8"></path><path d="M155.9,177.7a2.15,2.15,0,1,1-2.15-2.14A2.15,2.15,0,0,1,155.9,177.7Z" style="fill:#38BDF8"></path><circle cx="79.63" cy="226.98" r="2.15" style="fill:#38BDF8"></circle><path d="M367.84,311.64a2.15,2.15,0,1,1-2.15-2.15A2.15,2.15,0,0,1,367.84,311.64Z" style="fill:#38BDF8"></path><path d="M352.87,300.4a2.15,2.15,0,1,1-2.14-2.15A2.14,2.14,0,0,1,352.87,300.4Z" style="fill:#38BDF8"></path><path d="M383.9,321.77a2.15,2.15,0,1,1-2.15-2.15A2.14,2.14,0,0,1,383.9,321.77Z" style="fill:#38BDF8"></path><path d="M299.38,323.78a2.15,2.15,0,1,1-2.15-2.15A2.15,2.15,0,0,1,299.38,323.78Z" style="fill:#38BDF8"></path><path d="M313,356.78a2.15,2.15,0,1,1-2.14-2.15A2.15,2.15,0,0,1,313,356.78Z" style="fill:#38BDF8"></path><path d="M289.16,346.8a2.15,2.15,0,1,1-2.14-2.14A2.14,2.14,0,0,1,289.16,346.8Z" style="fill:#38BDF8"></path><path d="M150.27,153.65a2.15,2.15,0,1,1-2.15-2.14A2.15,2.15,0,0,1,150.27,153.65Z" style="fill:#38BDF8"></path><path d="M201,128.71a2.15,2.15,0,1,1-2.15-2.14A2.15,2.15,0,0,1,201,128.71Z" style="fill:#38BDF8"></path><path d="M263.79,122.81a2.15,2.15,0,1,1-2.15-2.15A2.15,2.15,0,0,1,263.79,122.81Z" style="fill:#38BDF8"></path><path d="M362.58,71.33a2.15,2.15,0,1,1-2.15-2.14A2.15,2.15,0,0,1,362.58,71.33Z" style="fill:#38BDF8"></path><path d="M197.62,67.84a2.15,2.15,0,1,1-2.15-2.15A2.16,2.16,0,0,1,197.62,67.84Z" style="fill:#38BDF8"></path><path d="M173.07,304.12s-.09-.08-.25-.25l-.71-.75-2.67-2.93c-.58-.65-1.25-1.34-1.91-2.15l-2.15-2.66c-.76-1-1.61-1.95-2.44-3.07l-2.56-3.58a111.91,111.91,0,0,1-10.72-18.82,101.11,101.11,0,0,1-7.47-25.42c-.44-2.32-.59-4.65-.86-6.93l-.21-3.41c0-.56-.07-1.13-.1-1.68s0-1.12,0-1.68q0-1.66,0-3.3l.12-3.24c0-1.07.1-2.13.19-3.17s.18-2.07.26-3.09a110.86,110.86,0,0,1,4.42-21.2,101.28,101.28,0,0,1,5.31-13.6c.75-1.56,1.38-2.74,1.83-3.53.22-.4.4-.69.52-.89s.19-.3.2-.29a2.51,2.51,0,0,1-.15.31l-.48.92c-.42.8-1,2-1.73,3.56a107.2,107.2,0,0,0-5.15,13.63A113.06,113.06,0,0,0,142,218c-.08,1-.17,2-.25,3.08s-.16,2.09-.18,3.15-.08,2.14-.12,3.22,0,2.19,0,3.29c0,.55,0,1.11,0,1.67s.07,1.11.1,1.67l.21,3.4c.28,2.27.43,4.58.86,6.89a101.85,101.85,0,0,0,7.4,25.31,114.6,114.6,0,0,0,10.58,18.8l2.52,3.59c.82,1.12,1.66,2.13,2.41,3.09l2.11,2.68c.65.82,1.31,1.52,1.87,2.17l2.6,3,.67.79C173,304,173.08,304.11,173.07,304.12Z" style="fill:#38BDF8"></path><path d="M79.57,232.32a1.29,1.29,0,0,1,0-.29v-.85c0-.79,0-1.89.07-3.28,0-.71,0-1.51.06-2.37s.11-1.8.18-2.81c.14-2,.24-4.32.54-6.85.14-1.26.28-2.59.42-4s.39-2.81.6-4.29c.37-3,1-6.11,1.58-9.42a192.15,192.15,0,0,1,13.24-41.67c1.43-3.05,2.74-6,4.15-8.61.69-1.33,1.32-2.63,2-3.84l2-3.49c1.21-2.24,2.46-4.18,3.5-5.91.54-.86,1-1.67,1.49-2.4l1.31-2,1.84-2.72.48-.7a2.31,2.31,0,0,1,.18-.22.83.83,0,0,1-.13.25l-.45.73-1.75,2.77-1.27,2-1.45,2.41c-1,1.74-2.24,3.69-3.43,5.94l-1.91,3.49c-.67,1.22-1.29,2.53-2,3.86-1.38,2.64-2.68,5.56-4.09,8.61a217.67,217.67,0,0,0-7.76,20.42,215.23,215.23,0,0,0-5.44,21.14c-.62,3.3-1.24,6.43-1.64,9.39-.21,1.48-.45,2.9-.62,4.28s-.3,2.7-.45,4c-.33,2.52-.45,4.82-.62,6.83-.08,1-.15,1.94-.22,2.81s-.08,1.64-.11,2.36c-.07,1.39-.13,2.48-.17,3.27,0,.35,0,.63,0,.85A1.36,1.36,0,0,1,79.57,232.32Z" style="fill:#38BDF8"></path><path d="M284.33,108.62a4,4,0,0,1-.75-.2l-2.14-.66c-.92-.31-2.05-.66-3.38-1s-2.83-.81-4.53-1.17l-2.65-.61c-.92-.21-1.89-.37-2.89-.56-2-.41-4.15-.69-6.42-1a120.43,120.43,0,0,0-14.86-.89,122.26,122.26,0,0,0-14.85,1.11c-2.26.36-4.41.67-6.4,1.11-1,.21-2,.38-2.89.6l-2.64.66c-1.69.38-3.18.87-4.5,1.24s-2.46.74-3.37,1.06l-2.13.7a5.72,5.72,0,0,1-.75.21,3.68,3.68,0,0,1,.72-.31l2.09-.79c.91-.35,2-.75,3.35-1.15s2.81-.91,4.5-1.32l2.64-.69c.92-.23,1.89-.41,2.89-.63,2-.46,4.16-.79,6.43-1.16a107,107,0,0,1,29.83-.23c2.27.34,4.44.63,6.44,1.06,1,.21,2,.37,2.9.59l2.65.65c1.7.38,3.19.87,4.52,1.25s2.46.76,3.37,1.1l2.1.75A3.77,3.77,0,0,1,284.33,108.62Z" style="fill:#38BDF8"></path><path d="M323.34,154.17a3.62,3.62,0,0,1-.5-.54c-.35-.4-.8-.93-1.36-1.6l-1-1.16c-.36-.41-.78-.84-1.22-1.32-.89-.93-1.85-2.05-3-3.15l-1.84-1.77c-.65-.61-1.37-1.19-2.08-1.82-1.42-1.28-3.06-2.5-4.76-3.81a83,83,0,0,0-24.83-12.56c-2.07-.59-4-1.19-5.9-1.57-.93-.21-1.82-.44-2.7-.6l-2.51-.43c-1.6-.32-3.07-.43-4.35-.59-.64-.08-1.24-.16-1.79-.21L264,123l-2.09-.15a3.54,3.54,0,0,1-.73-.09,3.69,3.69,0,0,1,.73,0l2.1,0,1.52,0c.56,0,1.16.1,1.8.16,1.29.13,2.77.22,4.38.51l2.53.41c.88.14,1.78.37,2.72.57,1.89.36,3.86,1,5.94,1.53a80.92,80.92,0,0,1,25,12.63c1.7,1.34,3.35,2.57,4.76,3.87.71.65,1.43,1.24,2.07,1.86l1.83,1.8c1.18,1.12,2.13,2.26,3,3.22.42.48.84.92,1.19,1.35s.66.83.94,1.2c.54.68,1,1.24,1.29,1.66A4.07,4.07,0,0,1,323.34,154.17Z" style="fill:#38BDF8"></path><path d="M344.73,127a1.2,1.2,0,0,1-.21-.18l-.59-.56-2.22-2.19-1.6-1.59c-.6-.57-1.27-1.15-2-1.8-1.44-1.27-3-2.8-4.93-4.28l-3-2.39c-1-.83-2.17-1.6-3.31-2.45-2.26-1.73-4.84-3.35-7.52-5.1A142.79,142.79,0,0,0,301,96.83a144.32,144.32,0,0,0-19.73-6.58c-3.12-.71-6.08-1.44-8.9-1.86-1.4-.23-2.75-.52-4.06-.68l-3.77-.46c-2.4-.35-4.59-.42-6.51-.58-1-.06-1.85-.14-2.68-.18l-2.25,0-3.12-.08-.81,0-.28,0a.84.84,0,0,1,.28,0l.81,0,3.12,0h2.26c.83,0,1.72.08,2.69.13,1.92.13,4.12.18,6.53.5l3.79.43c1.31.16,2.67.43,4.08.65,2.83.41,5.8,1.13,8.93,1.82A128.43,128.43,0,0,1,319.66,106c2.68,1.77,5.26,3.41,7.52,5.16,1.14.86,2.27,1.64,3.3,2.48l2.94,2.43c1.91,1.5,3.47,3,4.9,4.35.71.65,1.38,1.25,2,1.83l1.57,1.63,2.16,2.26.55.6A.94.94,0,0,1,344.73,127Z" style="fill:#38BDF8"></path><path d="M414.16,225.75a.9.9,0,0,1,0-.26l0-.79c0-.72,0-1.73-.06-3,0-.66,0-1.38,0-2.17s-.08-1.66-.12-2.59c-.11-1.85-.15-4-.4-6.28-.1-1.16-.2-2.38-.32-3.65s-.31-2.58-.48-3.94c-.3-2.72-.82-5.61-1.33-8.65A177.31,177.31,0,0,0,406.59,175a179.4,179.4,0,0,0-7.15-18.73c-1.32-2.79-2.53-5.46-3.84-7.87-.64-1.21-1.22-2.41-1.85-3.51l-1.82-3.18c-1.12-2-2.28-3.81-3.25-5.39l-1.37-2.19-1.22-1.8-1.67-2.5-.43-.66-.13-.23a125.85,125.85,0,0,1,8.39,12.58l1.85,3.17c.64,1.11,1.23,2.3,1.88,3.51,1.33,2.41,2.56,5.08,3.89,7.87a170.09,170.09,0,0,1,7.21,18.78,173.2,173.2,0,0,1,4.78,19.54c.49,3,1,5.94,1.28,8.68.16,1.37.35,2.68.45,3.95s.2,2.5.29,3.66A128.28,128.28,0,0,1,414.16,225.75Z" style="fill:#38BDF8"></path><path d="M392.12,199.85a4.53,4.53,0,0,1,.08.48c.05.35.11.82.18,1.42.13,1.25.44,3.09.59,5.48a159.8,159.8,0,0,1,.42,20.23c-.15,4.28-.54,8.95-1.09,13.95s-1.41,10.31-2.65,15.83c-.28,1.39-.59,2.79-1,4.19l-1.07,4.26c-.83,2.84-1.63,5.76-2.66,8.66a122.5,122.5,0,0,1-7.37,17.57,138.84,138.84,0,0,1-10,16.22,156,156,0,0,1-11.19,13.78,163.44,163.44,0,0,1-22.16,20.23,147.62,147.62,0,0,1-16.88,11.16c-2.05,1.23-3.74,2-4.85,2.61l-1.27.65c-.29.15-.44.21-.44.21s.13-.09.41-.25l1.25-.7c1.09-.63,2.76-1.44,4.8-2.69A158.35,158.35,0,0,0,334,341.86a166.9,166.9,0,0,0,22-20.27,156.84,156.84,0,0,0,11.12-13.75,137.8,137.8,0,0,0,9.95-16.16,123.3,123.3,0,0,0,7.35-17.49c1-2.89,1.83-5.8,2.66-8.63.36-1.43.72-2.85,1.08-4.25s.68-2.79,1-4.17c1.25-5.5,2-10.81,2.69-15.78s1-9.65,1.15-13.91a167.38,167.38,0,0,0-.26-20.21c-.11-2.38-.39-4.22-.48-5.47-.06-.61-.1-1.09-.13-1.43S392.12,199.85,392.12,199.85Z" style="fill:#38BDF8"></path><path d="M346.64,156.76s.1.09.27.3l.76.9c.64.81,1.67,1.95,2.84,3.55a113.07,113.07,0,0,1,9.1,14c1.73,3.08,3.4,6.57,5.07,10.37a121.65,121.65,0,0,1,4.51,12.46,113.66,113.66,0,0,1,3.34,14.26,112.26,112.26,0,0,1,1.56,15.65,126.53,126.53,0,0,1-.57,15.71A121.52,121.52,0,0,1,371,258.4,111.39,111.39,0,0,1,354,296c-1.1,1.64-2.08,2.82-2.69,3.66l-.73.93a2.88,2.88,0,0,1-.25.31,1.57,1.57,0,0,1,.21-.34l.68-1c.58-.85,1.54-2.05,2.61-3.71a116.11,116.11,0,0,0,8.37-14.4,111.19,111.19,0,0,0,8.34-23.21A121,121,0,0,0,373,243.91a125.59,125.59,0,0,0,.56-15.65A111.42,111.42,0,0,0,372,212.69a112.92,112.92,0,0,0-3.29-14.21,123.66,123.66,0,0,0-4.44-12.43c-1.66-3.79-3.3-7.28-5-10.36a118.91,118.91,0,0,0-8.93-14.06c-1.14-1.61-2.14-2.77-2.76-3.6l-.72-.94A2.09,2.09,0,0,1,346.64,156.76Z" style="fill:#38BDF8"></path><path d="M304.13,389.76l-.54.13-1.58.33c-1.39.28-3.45.73-6.11,1.17a221.87,221.87,0,0,1-22.72,2.77,229.9,229.9,0,0,1-33.93-.07c-6.37-.48-13.05-1.22-19.91-2.36a206.9,206.9,0,0,1-21.05-4.52,131.19,131.19,0,0,1-37.86-16.9,160.53,160.53,0,0,1-14.61-10.77C141.41,356,137.51,352.35,134,349c-7-6.72-12.16-12.56-15.71-16.64-1.77-2-3.11-3.65-4-4.75l-1-1.25-.33-.43.38.4,1.06,1.22c.93,1.07,2.3,2.66,4.1,4.68,3.58,4,8.84,9.83,15.8,16.51,3.5,3.33,7.4,6.9,11.81,10.47a164.4,164.4,0,0,0,14.6,10.7,134.92,134.92,0,0,0,17.53,9.58,132.49,132.49,0,0,0,20.21,7.22,208,208,0,0,0,21,4.52c6.85,1.14,13.51,1.89,19.87,2.38a234.73,234.73,0,0,0,33.87.18c9.63-.63,17.38-1.73,22.7-2.6,2.67-.41,4.73-.82,6.13-1.07l1.59-.28Z" style="fill:#38BDF8"></path><path d="M248.83,372.88a105.21,105.21,0,0,1-13.66-.17l-3.31-.26c-1.15-.09-2.33-.27-3.57-.42-2.47-.26-5.08-.75-7.83-1.22a129.41,129.41,0,0,1-34.35-11.6c-2.47-1.29-4.85-2.49-7-3.78-1.07-.63-2.12-1.21-3.1-1.83l-2.78-1.8a103.24,103.24,0,0,1-11-8.15l.2.13.58.41,2.18,1.62,1.56,1.19c.58.42,1.23.85,1.92,1.33,1.38.94,2.91,2.07,4.72,3.16l2.79,1.77c1,.61,2,1.17,3.1,1.8,2.13,1.27,4.5,2.44,7,3.72a134.11,134.11,0,0,0,34.23,11.56c2.74.48,5.34,1,7.8,1.26,1.23.16,2.41.35,3.55.45l3.3.3c2.09.22,4,.25,5.67.34.84,0,1.61.09,2.33.11h2l2.72,0,.71,0Z" style="fill:#38BDF8"></path><path d="M214.77,346.38s-.3,0-.87-.12l-2.48-.45-1.79-.33c-.65-.14-1.35-.32-2.11-.5-1.5-.39-3.24-.75-5.1-1.36l-2.94-.9c-1-.32-2.06-.73-3.14-1.12-2.19-.74-4.44-1.74-6.82-2.75a105.27,105.27,0,0,1-28.07-18.44c-1.87-1.79-3.68-3.45-5.23-5.16-.78-.85-1.58-1.63-2.27-2.44l-2-2.34c-1.31-1.47-2.33-2.92-3.28-4.15-.47-.62-.92-1.19-1.3-1.73l-1-1.52L145,301a4.71,4.71,0,0,1-.45-.75,6.19,6.19,0,0,1,.54.7l1.47,2,1.05,1.48c.4.53.86,1.09,1.33,1.7,1,1.21,2,2.64,3.33,4.09l2,2.31c.7.8,1.49,1.57,2.28,2.41,1.55,1.69,3.37,3.34,5.25,5.11a107.91,107.91,0,0,0,27.94,18.35c2.37,1,4.6,2,6.77,2.79,1.08.39,2.1.81,3.12,1.14l2.91.92c1.85.64,3.58,1,5.07,1.43.75.2,1.45.4,2.1.55l1.77.38,2.46.53A4.59,4.59,0,0,1,214.77,346.38Z" style="fill:#38BDF8"></path><path d="M253.28,418.36a1.59,1.59,0,0,1-.32.05l-1,.08-3.65.3-2.64.19c-1,0-2,.06-3.15.09-2.26,0-4.84.17-7.69,0l-4.46-.13c-1.56-.05-3.17-.23-4.84-.35-3.34-.19-6.89-.7-10.62-1.18a162.46,162.46,0,0,1-46.72-14.23c-3.37-1.69-6.6-3.24-9.48-4.94-1.45-.84-2.89-1.59-4.21-2.41l-3.78-2.38c-2.44-1.47-4.5-3-6.36-4.31-.92-.66-1.79-1.25-2.57-1.83l-2.08-1.64-2.87-2.28-.74-.6c-.16-.14-.25-.21-.24-.22s.1,0,.27.18l.77.56,2.93,2.2,2.11,1.6c.78.57,1.66,1.14,2.59,1.79,1.87,1.26,3.94,2.79,6.39,4.23l3.79,2.35c1.32.81,2.75,1.55,4.21,2.38,2.88,1.68,6.11,3.22,9.47,4.89A166.48,166.48,0,0,0,215,417c3.72.49,7.25,1,10.59,1.22,1.66.13,3.27.32,4.82.38l4.45.16c2.84.17,5.41,0,7.67,0,1.13,0,2.18,0,3.15,0l2.64-.16,3.66-.19,1,0Z" style="fill:#38BDF8"></path><path d="M109.79,183.5c-.05.14-9.55-3.38-21.22-7.86s-21.09-8.22-21-8.35,9.55,3.39,21.23,7.86S109.84,183.37,109.79,183.5Z" style="fill:#38BDF8"></path><path d="M148.79,152.69s-.06.09-.2.25l-.63.7c-.54.63-1.42,1.48-2.41,2.71a77.76,77.76,0,0,0-7.75,10.78A94,94,0,0,0,129.65,185a117.92,117.92,0,0,0-5.2,23.54A114,114,0,0,0,123.7,227v.27h-.26l-31.37-.1L83,227.06l-2.42,0L80,227a.85.85,0,0,1-.21,0s.07,0,.21,0l.63,0,2.42,0,9.08-.08,31.37-.09-.25.27a112.68,112.68,0,0,1,.73-18.48,116.55,116.55,0,0,1,5.27-23.63,91.58,91.58,0,0,1,8.29-17.95,73.71,73.71,0,0,1,7.91-10.73c1-1.21,1.92-2,2.49-2.64l.66-.67C148.7,152.76,148.78,152.68,148.79,152.69Z" style="fill:#38BDF8"></path><line x1="105.92" y1="249.47" x2="144.52" y2="243.45" style="fill:none"></line><path d="M171.67,305.56a6.86,6.86,0,0,1-.82,1.06c-.56.66-1.38,1.59-2.42,2.73-2.07,2.28-5,5.36-8.41,8.62s-6.6,6.07-9,8c-1.19,1-2.16,1.77-2.84,2.3a6.46,6.46,0,0,1-1.09.78,6.77,6.77,0,0,1,1-.94l2.72-2.42c2.3-2.05,5.46-4.9,8.85-8.15s6.36-6.28,8.5-8.49l2.54-2.62A6.29,6.29,0,0,1,171.67,305.56Z" style="fill:#38BDF8"></path><path d="M163.05,341.35c.12.07-5.66,9.56-12.91,21.19s-13.23,21-13.35,20.93,5.66-9.57,12.91-21.2S162.93,341.27,163.05,341.35Z" style="fill:#38BDF8"></path><path d="M211.36,348.27a9.67,9.67,0,0,1-.51,1.5c-.39,1.05-.91,2.41-1.53,4.05-1.3,3.42-3.07,8.14-4.93,13.39s-3.47,10-4.61,13.51l-1.36,4.11a8.88,8.88,0,0,1-.56,1.49,10.7,10.7,0,0,1,.36-1.55c.27-1,.68-2.41,1.21-4.16,1-3.5,2.6-8.31,4.47-13.57s3.69-10,5.08-13.35c.69-1.7,1.27-3.06,1.69-4A8.58,8.58,0,0,1,211.36,348.27Z" style="fill:#38BDF8"></path><path d="M299.73,390.62a1.66,1.66,0,0,1-.18-.43c-.11-.35-.25-.77-.42-1.27l-1.46-4.71c-1.2-4-2.84-9.48-4.61-15.57S289.71,357,288.59,353c-.53-1.95-1-3.55-1.3-4.75L287,347a3.13,3.13,0,0,1-.08-.46s.08.14.19.43.25.77.42,1.27c.37,1.19.86,2.78,1.45,4.71,1.21,4,2.85,9.48,4.62,15.57s3.35,11.61,4.47,15.62c.53,1.94,1,3.54,1.29,4.75l.33,1.3A1.47,1.47,0,0,1,299.73,390.62Z" style="fill:#38BDF8"></path><path d="M309.93,355.79c-.14,0-3.09-7.36-6.59-16.56s-6.24-16.7-6.11-16.75,3.09,7.36,6.59,16.56S310.06,355.74,309.93,355.79Z" style="fill:#38BDF8"></path><path d="M381.83,321.36a9.36,9.36,0,0,1-1.39-.6c-.88-.41-2.14-1-3.67-1.85-3.08-1.61-7.26-4-11.68-6.9s-8.24-5.85-10.92-8.05c-1.35-1.1-2.42-2-3.14-2.66a7,7,0,0,1-1.09-1,9.93,9.93,0,0,1,1.22.89l3.24,2.52c2.74,2.12,6.57,5,11,7.9s8.54,5.32,11.56,7l3.59,2A8.07,8.07,0,0,1,381.83,321.36Z" style="fill:#38BDF8"></path><path d="M428.31,283.07c0,.14-10.34-2.29-23-5.42s-22.93-5.79-22.89-5.93,10.33,2.29,23,5.42S428.34,282.93,428.31,283.07Z" style="fill:#38BDF8"></path><path d="M416.36,226.34c0,.15-9,.37-20.1.5s-20.11.12-20.12,0,9-.37,20.11-.5S416.36,226.2,416.36,226.34Z" style="fill:#38BDF8"></path><path d="M391.4,199.74c0,.14-19.53.6-43.63,1s-43.64.65-43.64.51,19.53-.6,43.64-1S391.4,199.6,391.4,199.74Z" style="fill:#38BDF8"></path><path d="M426.94,164.9a2.14,2.14,0,0,1-.43.2l-1.27.46-4.66,1.66c-3.94,1.4-9.37,3.36-15.32,5.64s-11.31,4.45-15.17,6l-4.58,1.88-1.25.5a1.82,1.82,0,0,1-.45.14s.13-.1.41-.24l1.21-.58c1.06-.5,2.6-1.2,4.52-2,3.83-1.68,9.16-3.9,15.12-6.19s11.42-4.19,15.39-5.5c2-.65,3.6-1.16,4.72-1.5l1.29-.37A1.6,1.6,0,0,1,426.94,164.9Z" style="fill:#38BDF8"></path><path d="M350.33,126.86c.09.11-5.71,5.37-12.95,11.75s-13.2,11.47-13.29,11.36,5.7-5.37,12.94-11.75S350.23,126.75,350.33,126.86Z" style="fill:#38BDF8"></path><path d="M359.52,71.81c.12.09-5.74,8.51-13.08,18.82s-13.39,18.59-13.51,18.51,5.74-8.51,13.09-18.82S359.4,71.73,359.52,71.81Z" style="fill:#38BDF8"></path><path d="M248.09,84.11a1.43,1.43,0,0,1,0-.49c0-.38,0-.84.05-1.4.06-1.3.13-3,.23-5.16.17-4.36.3-10.38.16-17s-.53-12.67-.89-17l-.44-5.14-.12-1.4a1.53,1.53,0,0,1,0-.49,1.38,1.38,0,0,1,.11.48c.06.37.12.83.21,1.39.17,1.2.38,3,.61,5.13.45,4.34.9,10.37,1,17s-.05,12.7-.32,17.06c-.13,2.18-.26,3.94-.39,5.16l-.15,1.4A2.6,2.6,0,0,1,248.09,84.11Z" style="fill:#38BDF8"></path><path d="M198.58,128.57a6.4,6.4,0,0,1-.81-1.06c-.49-.7-1.17-1.72-2-3-1.65-2.56-3.84-6.17-6.09-10.25s-4.12-7.87-5.4-10.64c-.64-1.38-1.15-2.51-1.47-3.3a7.1,7.1,0,0,1-.47-1.24,6.74,6.74,0,0,1,.65,1.16l1.62,3.22c1.37,2.73,3.29,6.47,5.53,10.55s4.38,7.7,6,10.31l1.85,3.09A6.83,6.83,0,0,1,198.58,128.57Z" style="fill:#38BDF8"></path><path d="M318.2,188.11a2.47,2.47,0,0,1,0-.34l0-1c0-.86,0-2.07-.05-3.61,0-3.14-.06-7.62-.11-13.11l.2.2-34.06.06c-.23.24.32-.31.26-.25h0v9.29c0,3,0,5.93,0,8.71l-.25-.25,24.42.12,7.07.07,1.89,0,.68,0a4.52,4.52,0,0,1-.62,0l-1.85,0-7,.06-24.58.12h-.24v-.24c0-2.78,0-5.7,0-8.71,0-1.51,0-3,0-4.59v-4.7h0c-.06.05.49-.5.26-.27l34.06.07h.2v.19c0,5.54-.08,10.06-.11,13.23,0,1.52,0,2.71-.05,3.57,0,.38,0,.68,0,.92A1.71,1.71,0,0,1,318.2,188.11Z" style="fill:#38BDF8"></path><path d="M312.21,176.38c0,.14-5.29.26-11.82.26s-11.81-.12-11.81-.26,5.29-.26,11.81-.26S312.21,176.24,312.21,176.38Z" style="fill:#38BDF8"></path><path d="M312.21,180.26c0,.14-5.29.26-11.82.26s-11.81-.12-11.81-.26,5.29-.26,11.81-.26S312.21,180.12,312.21,180.26Z" style="fill:#38BDF8"></path><path d="M304.13,187.71a23.32,23.32,0,0,1,.26,4.87,23.26,23.26,0,0,1-.26,4.86,23.26,23.26,0,0,1-.26-4.86A23.32,23.32,0,0,1,304.13,187.71Z" style="fill:#38BDF8"></path><path d="M442.53,267s0-.12,0-.34,0-.56,0-1c0-.86,0-2.07-.05-3.61,0-3.14-.06-7.61-.1-13.11l.19.2-34,.06c-.24.24.31-.31.26-.25h0v2.35c0,.79,0,1.57,0,2.35v4.59c0,3,0,5.93,0,8.71l-.24-.25,24.41.12,7.07.07,1.9,0,.67,0a4.43,4.43,0,0,1-.61,0l-1.85,0-7,.06-24.58.12h-.25V267c0-2.78,0-5.7,0-8.71V249h0c-.06,0,.49-.5.26-.27l34,.07h.2V249c0,5.55-.08,10.06-.11,13.23,0,1.52,0,2.71,0,3.57l0,.92A1,1,0,0,1,442.53,267Z" style="fill:#38BDF8"></path><path d="M436.54,255.27c0,.14-5.29.26-11.81.26s-11.82-.12-11.82-.26,5.29-.26,11.82-.26S436.54,255.13,436.54,255.27Z" style="fill:#38BDF8"></path><path d="M436.54,259.15c0,.15-5.29.26-11.81.26s-11.82-.11-11.82-.26,5.29-.26,11.82-.26S436.54,259,436.54,259.15Z" style="fill:#38BDF8"></path><rect x="416.12" y="97.36" width="34.06" height="18.01" style="fill:#fff"></rect><path d="M450.17,115.37s0-.12,0-.34,0-.56,0-1c0-.87,0-2.08-.05-3.61,0-3.15-.06-7.62-.1-13.11l.19.19-34.05.07c-.24.23.31-.32.26-.26h0v4.7c0,1.56,0,3.09,0,4.59,0,3,0,5.93,0,8.71l-.24-.24,24.41.12,7.07.06,1.9,0,.67,0a4.43,4.43,0,0,1-.61,0l-1.85,0-7,.07-24.58.12h-.25v-.25c0-2.78,0-5.69,0-8.71V97.37h0l.26-.26,34.05.06h.2v.2c0,5.54-.08,10-.1,13.23,0,1.51,0,2.71,0,3.57,0,.37,0,.68,0,.91A1,1,0,0,1,450.17,115.37Z" style="fill:#38BDF8"></path><path d="M444.19,103.65c0,.14-5.3.26-11.82.26s-11.82-.12-11.82-.26,5.29-.26,11.82-.26S444.19,103.5,444.19,103.65Z" style="fill:#38BDF8"></path><path d="M444.19,107.53c0,.14-5.3.26-11.82.26s-11.82-.12-11.82-.26,5.29-.26,11.82-.26S444.19,107.38,444.19,107.53Z" style="fill:#38BDF8"></path><path d="M426.77,115.29c.15,0,.26,10.64.26,23.75s-.11,23.76-.26,23.76-.26-10.64-.26-23.76S426.63,115.29,426.77,115.29Z" style="fill:#38BDF8"></path><path d="M55.28,162a1.37,1.37,0,0,1,0-.34l0-.95c0-.87,0-2.08,0-3.62,0-3.14-.06-7.61-.1-13.1l.2.19-34.06.07.26-.26h0v4.7c0,1.55,0,3.09,0,4.59,0,3,0,5.93,0,8.71l-.24-.24,24.41.12,7.07.06,1.9,0,.68,0a4.71,4.71,0,0,1-.62,0l-1.85,0-7,.07-24.58.12H21V162c0-2.78,0-5.69,0-8.71V144h0c-.06.05.49-.5.26-.26l34.06.06h.19v.2c0,5.54-.08,10.05-.1,13.23,0,1.51,0,2.71,0,3.57,0,.37,0,.67,0,.91S55.28,162,55.28,162Z" style="fill:#38BDF8"></path><path d="M49.29,150.25c0,.15-5.29.26-11.82.26s-11.81-.11-11.81-.26,5.28-.26,11.81-.26S49.29,150.11,49.29,150.25Z" style="fill:#38BDF8"></path><path d="M49.29,154.14c0,.14-5.29.26-11.82.26s-11.81-.12-11.81-.26,5.28-.26,11.81-.26S49.29,154,49.29,154.14Z" style="fill:#38BDF8"></path><rect x="82.47" y="352.46" width="34.06" height="18.01" style="fill:#fff"></rect><path d="M116.53,370.47a1.37,1.37,0,0,1,0-.34l0-.95c0-.87,0-2.08,0-3.62,0-3.14-.06-7.61-.11-13.1l.2.19-34.06.07.26-.26h0v9.29c0,3,0,5.93,0,8.71l-.24-.24,24.42.12,7.06.06,1.9,0,.68,0a4.52,4.52,0,0,1-.62,0l-1.85,0-7,.07-24.58.12h-.24v-.25c0-2.78,0-5.69,0-8.71v-9.29h0l.26-.26,34.06.06h.2v.2c0,5.54-.08,10.05-.1,13.22,0,1.52,0,2.72-.05,3.58,0,.37,0,.67,0,.91A1.45,1.45,0,0,1,116.53,370.47Z" style="fill:#38BDF8"></path><path d="M110.54,358.74c0,.15-5.29.26-11.82.26s-11.81-.11-11.81-.26,5.29-.26,11.81-.26S110.54,358.6,110.54,358.74Z" style="fill:#38BDF8"></path><path d="M110.54,362.63c0,.14-5.29.26-11.82.26s-11.81-.12-11.81-.26,5.29-.26,11.81-.26S110.54,362.48,110.54,362.63Z" style="fill:#38BDF8"></path><path d="M320.17,51.2s0-.13,0-.34,0-.57,0-1c0-.87,0-2.08-.05-3.61,0-3.15-.06-7.62-.1-13.11l.19.2-34.05.06c-.24.23.31-.32.25-.26h0v9.29c0,3,0,5.92,0,8.71l-.25-.25,24.42.12,7.07.07,1.9,0,.67,0s-.2,0-.62,0l-1.84,0-7,.07-24.58.12h-.24V51.2c0-2.79,0-5.7,0-8.71V37.9c0-.78,0-1.56,0-2.35V33.2h0c-.05.06.5-.49.27-.26l34.05.06h.2v.19c-.05,5.54-.08,10.06-.11,13.23,0,1.52,0,2.71-.05,3.57l0,.92A1,1,0,0,1,320.17,51.2Z" style="fill:#38BDF8"></path><path d="M314.18,39.47c0,.14-5.29.26-11.81.26s-11.82-.12-11.82-.26,5.29-.26,11.82-.26S314.18,39.32,314.18,39.47Z" style="fill:#38BDF8"></path><path d="M314.18,43.35c0,.14-5.29.26-11.81.26s-11.82-.12-11.82-.26,5.29-.26,11.82-.26S314.18,43.21,314.18,43.35Z" style="fill:#38BDF8"></path><path d="M63.24,166a5.09,5.09,0,0,1-1.17.11l-3.19.08c-2.7,0-6.42.07-10.53.07-4.31,0-8.19,0-10.88-.08h-.18V166c0-1.16.06-2.15.08-2.95a4.64,4.64,0,0,1,.1-1.07,4,4,0,0,1,.1,1.07c0,.8,0,1.79.08,2.95l-.18-.17c2.69-.05,6.57-.09,10.88-.09,4.11,0,7.83,0,10.53.08l3.19.08A5.58,5.58,0,0,1,63.24,166Z" style="fill:#38BDF8"></path><path d="M288.65,106.65a2.18,2.18,0,0,1,.14-.57c.12-.41.28-.94.48-1.58l1.78-5.82c1.47-4.91,3.38-11.75,5.12-19.38.84-3.68,1.57-7.21,2.19-10.43v0c-.1-5.15-.19-9.56-.25-12.76,0-1.51,0-2.74,0-3.66a6.87,6.87,0,0,1,.05-1.3,10.08,10.08,0,0,1,.11,1.3c0,.92.1,2.14.16,3.65.11,3.2.26,7.61.44,12.76v0c-.59,3.23-1.31,6.77-2.15,10.45-1.75,7.65-3.71,14.49-5.28,19.38-.78,2.45-1.46,4.42-1.94,5.77l-.57,1.56A2.5,2.5,0,0,1,288.65,106.65Z" style="fill:#38BDF8"></path><path d="M147.13,362.63c0,.14-6.46.26-14.42.26s-14.43-.12-14.43-.26,6.46-.26,14.43-.26S147.13,362.48,147.13,362.63Z" style="fill:#38BDF8"></path></g></svg>