<svg width="1447" height="1313" viewBox="0 0 1447 1313" fill="none" xmlns="http://www.w3.org/2000/svg">
<g opacity="0.15">
<path fill-rule="evenodd" clip-rule="evenodd" d="M591.967 386.134C596.88 367.511 574.114 338.988 564.885 324.955C546.639 297.201 526.995 270.823 507.666 244.192C488.337 217.561 468.927 190.966 451.27 162.684C439.804 144.324 426.145 123.446 421.234 100.301C410.776 50.9785 478.687 76.0852 496.98 79.9696C543.518 89.8416 595.856 105.053 644.926 93.9777C674.218 87.3657 690.52 67.4802 693.842 33.0212C694.938 21.8188 692.983 8.06596 700.24 -1.18892C707.989 -11.0735 720.665 -14.5791 730.91 -16.4623C768.273 -23.3132 806.873 -14.923 842.475 -7.49932C880.875 0.46503 918.879 11.3296 956.475 21.2245C972.417 25.4209 990.918 22.8947 1007.6 21.2831C1029.47 19.1717 1051.35 16.0804 1073.23 13.2847C1121.35 7.17643 1171.04 0.4778 1218.13 8.27069C1247.62 13.1498 1278.01 25.3799 1293.76 55.9009C1301.66 71.2254 1302.62 91.1136 1304.74 109.121C1307.32 130.879 1309.53 152.744 1312.7 174.328C1322.91 243.848 1345 315.029 1406.51 334.793C1415.82 337.782 1425.48 338.761 1434.95 340.994C1440.97 342.422 1445.82 345.61 1445.99 353.839C1446.45 374.483 1420.79 400.002 1409.52 413.264C1384.85 442.293 1358.57 469.289 1333.19 497.412C1316.4 516.01 1289.44 540.349 1282.22 566.478C1275.79 589.76 1296.69 613.434 1307.45 628.633C1317.54 642.867 1337 664.219 1332.56 686.486C1330.41 697.282 1322.32 704.541 1314.5 709.762C1300.81 718.886 1286.47 724.067 1273.38 735.155C1251.92 753.349 1230.75 780.624 1224.78 811.293C1220.65 832.544 1226.74 848.818 1235.65 865.201C1239.39 872.088 1242.58 877.107 1240.47 886.095C1237.12 900.369 1228.56 914.131 1221.31 926.252C1195.34 969.633 1164.16 1009.95 1131.65 1046.69C1115.4 1065.05 1098.32 1083.12 1079.47 1097.44C1067.11 1106.85 1050.95 1117.66 1036.96 1113.9C1020.75 1109.55 1005.51 1097.82 991.188 1088.26C964.437 1070.4 938.459 1051.07 912.677 1031.48C853.055 986.16 794.657 938.793 737.483 889.376C697.221 854.53 655.985 819.389 620.473 777.89C613.558 769.757 607.38 760.778 602.022 751.076C596.26 740.85 587.387 734.588 578.13 729.212C520.674 695.841 449.355 690.528 384.985 681.931C368.647 679.745 352.307 677.57 336.089 674.759C322.147 672.343 304.905 671.508 293.097 662.656C269.826 645.227 302.928 612.84 316.765 599.737C365.482 553.602 421.765 518.606 475.11 481.777C500.483 464.229 525.987 446.78 550.656 427.666C563.496 417.732 587.659 402.46 591.967 386.134Z" stroke="white" stroke-width="2"/>
<path fill-rule="evenodd" clip-rule="evenodd" d="M604.494 386.13C599.371 363.659 585.028 344.22 573.554 326.469C557.045 300.917 539.558 276.277 522.552 251.191C506.472 227.469 490.404 203.528 476.53 177.764C468.07 162.053 457.258 143.079 456.63 123.026C455.258 79.5601 518.96 103.17 535.371 106.44C576.168 114.583 621.79 126.169 664.56 114.939C691.267 107.925 706.658 88.55 709.872 56.7867C710.986 45.7976 710.318 35.9815 717.021 26.5482C724.774 15.6296 737.161 10.8466 748.09 8.0558C782.324 -0.689611 818.448 5.18359 851.494 10.8715C885.634 16.7479 920.929 23.8985 952.58 34.7751C965.239 39.1204 981.436 38.0495 995.236 37.5977C1016.47 36.895 1037.75 35.2222 1059.01 34.0594C1102.21 31.6861 1146.31 30.0666 1188.01 39.7113C1218.11 46.6738 1247.71 60.5931 1266.74 88.8318C1286.02 117.464 1288.09 154.391 1293.39 190.39C1302.53 252.619 1316.89 329.152 1369.46 355.868C1377.43 359.922 1385.81 361.127 1394.13 363.828C1398.41 365.214 1403.16 367.243 1403.97 373.055C1406.05 388.144 1383.75 408.736 1375.7 417.709C1353.45 442.506 1329.77 465.414 1306.97 489.47C1288.86 508.571 1266.85 529.287 1255.06 554.522C1240.76 585.146 1271.8 617.979 1278.8 644.117C1290.95 689.441 1242.03 700.302 1215.85 713.345C1185.79 728.318 1155.23 762.14 1168.11 801.221C1173.03 816.166 1181.26 826.49 1180.54 844.077C1179.41 871.58 1167.06 900.048 1155.47 924.428C1138.02 961.073 1116.55 996.19 1091.9 1026.93C1074.25 1048.94 1045.58 1083.18 1019.73 1073.11C1002.31 1066.34 985.998 1054.3 970.229 1043.3C946.616 1026.83 923.686 1009.12 901.006 991.038C848.632 949.36 797.622 905.21 748.524 858.527C715.026 826.667 629.004 710.1 621.607 704.781C599.548 688.931 571.205 683.085 545.517 677.742C511.345 670.631 476.53 666.602 441.838 662.216C425.327 660.117 408.607 658.479 392.307 655.256C380.706 652.96 365.563 649.6 357.746 638.839C342.485 617.841 373.866 587.564 386.937 574.698C426.985 535.252 472.641 504.034 516.371 471.323C537.833 455.26 559.531 439.296 579.954 421.206C588.194 413.899 607.663 400.011 604.494 386.13Z" stroke="white" stroke-width="2"/>
<path fill-rule="evenodd" clip-rule="evenodd" d="M621.585 379.889C603.745 332.887 572.404 293.087 547.394 251.123C534.843 230.056 522.306 208.51 512.936 184.912C508.06 172.64 502.015 157.154 504.369 142.499C510.669 103.298 568.175 124.237 586.188 127.512C621.018 133.834 660.086 142.019 696.218 130.835C718.295 123.995 732.831 106.954 736.179 80.3335C737.666 68.5225 737.822 58.1922 744.82 48.0792C751.912 37.8341 762.502 32.1022 772.663 28.4006C801.866 17.7495 833.894 20.4251 862.673 23.7361C896.424 27.6545 929.639 34.5537 962.048 44.3781C990.438 52.9683 1021.7 50.2928 1051.48 50.9882C1090.93 51.9144 1130.74 54.1597 1168.33 65.5044C1198.01 74.4696 1226.19 89.9695 1246.5 116.534C1267.12 143.573 1274.71 177.803 1280.12 213.998C1288.29 268.713 1297.25 341.498 1339.01 372.636C1345.09 377.17 1351.34 379.166 1358.23 381.517C1361.57 382.658 1365.95 383.907 1366.48 388.694C1367.75 400.22 1347.3 416.427 1341.22 422.355C1321.8 441.281 1301.54 458.89 1281.87 477.428C1263.51 494.734 1243.77 512.608 1229.3 534.778C1206.27 570.089 1240.68 603.566 1229.67 640.143C1222.82 662.851 1200.46 674.456 1183.18 682.002C1161.92 691.276 1134.24 693.7 1118.64 716.84C1107.02 734.075 1114.31 747.872 1118.34 764.394C1125.18 792.389 1117.22 825.723 1108.26 853.606C1096.16 891.287 1078.44 928.069 1056.56 959.821C1046.64 974.216 1035.28 988.91 1021.77 998.533C1009.11 1007.55 999.27 1008.1 987.135 1002.3C949.989 984.56 915.947 953.722 883.308 925.58C842.299 890.219 802.574 852.666 765.077 812.344C739.509 784.847 713.546 756.046 693.704 722.206C688.534 713.384 683.355 703.915 680.667 693.386C678.623 685.467 678.495 679.345 672.998 673.663C656.703 656.825 628.884 652.632 607.76 648.267C573.985 641.28 539.512 637.537 505.221 633.295C485.206 630.839 446.584 629.634 436.665 605.04C428.105 583.804 452.221 557.97 464.587 544.597C495.864 510.781 531.787 483.372 566.06 454.423C581.767 441.155 597.952 427.882 612.173 412.262C615.803 408.282 621.277 403.184 623.439 397.746C625.901 391.511 623.77 385.678 621.585 379.889Z" stroke="white" stroke-width="2"/>
<path fill-rule="evenodd" clip-rule="evenodd" d="M621.57 389.714C604.664 347.852 580.721 310.767 561.286 270.625C552.572 252.626 543.925 233.878 539.078 213.471C536.47 202.497 534.207 188.956 538.827 177.422C552.086 144.319 599.691 160.387 619.795 163.627C649.658 168.476 683.854 174.463 714.504 162.911C734.581 155.345 745.675 139.199 748.695 115.349C751.932 89.7658 764.278 73.8734 785.141 64.7086C811.295 53.2319 840.359 53.4855 866.698 55.1909C898.425 57.2743 929.639 62.7939 959.962 71.6825C989.451 80.3297 1019.83 81.9648 1050.36 85.918C1090.85 91.1641 1131.88 99.3955 1167.65 120.468C1198.8 138.816 1223.68 167.524 1237.94 205.431C1252.85 244.999 1253.42 289.973 1262.91 331.871C1268.82 358.004 1277.51 392.805 1297.65 407.743C1304.36 412.725 1319.12 412.387 1309.21 425.388C1303.54 432.824 1295.16 438.433 1288.26 443.904C1277.12 452.745 1265.78 461.21 1254.53 469.863C1230.56 488.308 1205.2 506.909 1184.54 530.818C1158.5 560.917 1176.29 594.218 1163.86 628.479C1157.17 646.917 1142.38 659.1 1127.83 667.887C1118.42 673.58 1108.59 678.061 1098.7 682.051C1088.38 686.221 1076.9 688.428 1067.17 694.786C1053.31 703.831 1054.17 719.166 1052.04 735.093C1048.32 763.084 1041.73 790.765 1032.43 817.51C1021.04 850.292 1006.11 883.152 985.929 910.31C978.077 920.884 968.784 931.835 957.85 937.406C946.915 942.976 937.949 939.991 928.494 934.898C900.442 919.816 874.962 895.388 850.729 872.212C820.399 843.202 791.381 812.088 764.736 778.398C746.344 755.141 728.244 730.49 715.236 702.154C711.454 693.908 708.071 685.257 705.932 676.038C704.462 669.714 704.791 662.151 701.627 656.847C691.719 640.279 663.807 636.954 647.907 633.502C616.174 626.61 583.423 625.496 551.668 618.849C534.336 615.222 506.952 610.444 499.166 589.337C491.842 569.494 509.563 546.082 520.918 531.896C543.239 504.002 569.394 480.831 593.947 455.921C604.043 445.669 614.948 435.034 623.089 422.419C630.334 411.176 625.902 400.446 621.57 389.714Z" stroke="white" stroke-width="2"/>
<path fill-rule="evenodd" clip-rule="evenodd" d="M627.87 392.013C615.197 355.767 597.31 321.812 584.62 285.026C577.194 263.485 564.206 227.137 580.618 203.972C598.636 178.512 635.257 187.5 656.915 190.864C682.694 194.867 713.106 199.049 739.274 187.149C747.549 183.388 755.304 177.553 760.358 168.484C765.768 158.778 765.342 148.903 767.76 138.384C772.834 116.317 788.226 101.634 805.603 93.3751C830.163 81.6955 857.325 80.3403 882.447 81.0531C910.901 81.889 938.939 86.0554 966.159 93.4925C992.177 100.581 1018.14 106.783 1044.43 112.957C1078.82 121.011 1112.93 132.028 1143.05 151.945C1172.71 171.573 1196.86 199.933 1212.09 236.206C1226.94 271.6 1232.65 311.532 1236.29 351.62C1238.35 374.373 1242.92 408.773 1258.27 424.101C1265.1 430.921 1273.11 432.724 1261.28 442.534C1246.38 454.886 1228.53 463.217 1212.52 472.904C1189.41 486.885 1165.75 501.113 1144.6 519.428C1131.09 531.123 1123.06 543.833 1118.77 562.513C1115.51 576.746 1114.11 591.32 1109.13 605.152C1097.47 637.619 1069.94 654.649 1045.31 670.779C1029.46 681.151 1015.55 688.571 1004.07 706.292C990.51 727.234 980.711 751.346 969.373 773.826C956.921 798.511 943.342 824.022 925.282 843.863C909.205 861.529 893.868 867.273 876.082 856.586C848.337 839.925 824.398 810.78 802.976 784.013C781.169 756.776 760.494 727.182 745.343 693.717C737.164 675.646 733.533 656.028 727.008 637.221C718.792 613.603 686.064 612.944 667.366 609.746C636.327 604.438 535.398 599.911 562.425 534.213C573.706 506.791 595.184 484.449 612.471 462.216C619.639 452.987 629.325 442.202 633.509 430.547C638.068 417.853 631.676 402.922 627.87 392.013Z" stroke="white" stroke-width="2"/>
<path fill-rule="evenodd" clip-rule="evenodd" d="M638.201 397.57C629.683 365.519 617.614 334.16 611.957 300.492C608.278 278.683 606.509 250.387 623.477 232.902C642.626 213.171 672.596 215.407 694.344 218.067C716.751 220.81 743.213 225.157 765.572 212.297C772.688 208.199 779.341 201.884 782.626 193.068C785.782 184.613 785.762 175.306 788.906 166.679C795.963 147.306 810.199 133.6 826.083 125.149C873.072 100.147 931.111 107.341 976.711 118.578C999.536 124.206 1022.26 132.859 1044.65 140.696C1073.7 150.865 1102.12 163.595 1127.31 182.676C1180.88 223.237 1206.65 288.262 1216.71 363.281C1219.88 386.894 1220.5 411.691 1229.81 432.479C1234.6 443.21 1231.34 449.121 1221.87 455.198C1207.07 464.695 1190.55 470.556 1175.04 477.638C1152.99 487.71 1130.5 497.9 1109.74 511.481C1095.44 520.843 1084.45 530.611 1077.13 548.438C1071.91 561.148 1068.71 574.667 1064.14 587.639C1055.47 612.281 1042.14 635.475 1024.81 653.199C1011.05 667.242 995.92 679.301 980.602 690.56C960.682 705.225 942.983 720.805 925.717 739.919C902.839 765.214 867.241 813.644 835.692 789.848C800.898 763.597 775.072 713.664 760.451 668.071C755.54 652.763 752.927 634.903 744.167 622.237C731.045 603.298 713.685 599.186 693.476 593.835C663.224 585.815 595.294 576.198 609.394 520.728C614.982 498.752 628.294 480.125 637.656 460.055C648.17 437.586 644.03 419.42 638.201 397.57Z" stroke="white" stroke-width="2"/>
<path fill-rule="evenodd" clip-rule="evenodd" d="M649.424 403.233C643.337 362.803 623.875 293.833 661.584 260.793C681.505 243.331 708.801 242.078 731.179 242.968C749.193 243.665 770.06 247.706 787.267 234.809C799.916 225.325 800.412 206.724 808.054 192.657C817.532 175.22 831.911 162.726 847.63 154.652C891.559 132.087 943.338 135.425 986.417 144.726C1031.16 154.392 1077.09 177.571 1113.42 208.213C1158.71 246.427 1185.19 302.899 1196.7 368.514C1198.83 380.625 1200.42 392.896 1202.3 405.084C1203.58 413.262 1206.47 421.619 1206.96 429.992C1207.76 443.952 1199.96 453.095 1189.71 459.307C1174.97 468.252 1158.52 473.024 1142.97 478.534C1121.7 486.079 1100.09 493.294 1079.5 503.316C1065.66 510.063 1051.09 517.424 1042.54 533.274C1036.71 544.083 1032.86 556.158 1029.76 568.141C1023.1 593.835 1016.44 614.271 1000.35 635.123C973.889 669.346 939.795 697.359 905.86 719.175C879.228 736.297 837.263 762.735 811.35 739.572C788.092 718.817 781.054 682.169 770.364 651.2C765.167 636.144 758.611 621.909 749.672 609.795C738.401 594.524 726.194 586.111 709.713 579.691C681.976 568.883 639.099 556.516 641.474 512.306C642.349 495.99 648.497 480.495 650.976 464.394C654.282 443.113 652.496 423.627 649.424 403.233Z" stroke="white" stroke-width="2"/>
<path fill-rule="evenodd" clip-rule="evenodd" d="M665.477 408.971C664.848 366.349 663.455 312.473 700.037 284.545C717.757 271.015 738.809 266.439 758.621 264.112C772.812 262.442 793.573 266.395 805.64 252.804C814.509 242.799 819.578 227.078 828.117 216.101C839.853 201.008 854.481 189.906 870.176 182.353C911.066 162.669 957.307 163.22 997.625 170.633C1085.23 186.752 1157.84 264.804 1179.64 367.043C1186.14 397.52 1196.16 430.788 1166.71 452.253C1134.56 475.664 1094.44 479.916 1059.93 493.426C1046.75 498.582 1030.11 504.568 1020.03 517.599C1013.98 525.431 1010.76 536.432 1007.99 546.1C1000.91 570.718 993.271 592.513 978.937 613.411C956.793 645.709 927.905 673.239 897.939 694.1C871.806 712.29 836.118 732.334 811.852 707.669C793.254 688.728 786.651 657.334 774.948 632.361C761.93 604.551 742.407 582.931 718.472 568.509C695.182 554.499 668.818 542.194 663.772 507.832C662.041 496.046 660.94 481.09 662.363 468.939C664.768 448.92 665.81 428.864 665.477 408.971Z" stroke="white" stroke-width="2"/>
<path fill-rule="evenodd" clip-rule="evenodd" d="M683.708 414.155C689.223 372.765 699.82 330.903 732.427 305.855C747.644 294.17 764.698 287.541 781.649 281.938C794.12 277.814 806.647 274.874 817.627 265.577C827.798 256.971 836.665 246.189 846.657 237.238C859.855 225.365 874.373 215.914 889.652 209.251C927.938 192.597 969.474 191.14 1007.29 196.908C1025.6 199.692 1045.17 203.83 1061.38 213.96C1077.04 223.738 1091.7 236.492 1104.8 250.296C1132.68 279.621 1153.57 317.227 1164.4 360.597C1171.82 390.343 1172.84 417.606 1147.2 438.895C1118.3 462.891 1081.05 470.421 1048.8 482.38C1026.69 490.583 1002.4 497.923 991.42 525.007C982.683 546.556 974.77 567.112 961.973 586.265C943.003 614.492 919.81 638.451 893.771 656.721C869.979 673.347 842.276 685.442 819.54 667.064C801.532 652.487 791.128 627.855 777.169 608.497C761.621 586.887 742.152 572.053 721.052 558.666C702.096 546.609 685.286 531.382 677.597 506.559C676.022 501.485 674.412 495.99 673.601 490.569C672.568 483.652 674.422 477.567 675.753 470.481C679.285 451.787 681.209 432.888 683.708 414.155Z" stroke="white" stroke-width="2"/>
<path fill-rule="evenodd" clip-rule="evenodd" d="M704.762 416.294C715.385 378.421 732.491 344.522 760.927 320.409C773.086 310.093 786.348 302.465 799.103 293.444C809.375 286.168 819.044 279.441 830.04 274.124C856.114 261.544 879.66 242.532 906.527 232.307C942.401 218.626 980.042 215.837 1015.48 220.187C1032.79 222.309 1050.24 226.105 1066.4 233.278C1080.29 239.439 1092.02 251.151 1102.71 262.779C1123.65 285.559 1142.05 314.892 1150.72 348.086C1169.83 421.268 1086.24 448.352 1042.44 465.593C1022.3 473.526 992.75 481.046 979.263 503.837C969.626 520.117 961.831 537.212 950.922 552.569C921.621 593.81 872.618 638.42 828.472 618.903C809.581 610.556 794.95 593.293 778.787 580.005C762.144 566.321 743.873 556.282 725.589 545.739C708.5 535.889 695.705 524.959 688.843 503.011C685.561 492.529 688.937 481.937 691.375 470.81C695.386 452.532 699.741 434.236 704.762 416.294Z" stroke="white" stroke-width="2"/>
<path fill-rule="evenodd" clip-rule="evenodd" d="M724.44 416.352C747.205 360.991 791.465 305.752 840.804 283.28C898.841 256.845 959.183 237.658 1018.53 243.396C1046.04 246.056 1075.47 251.623 1096.46 272.662C1112.44 288.666 1130.03 310.901 1134.28 336.68C1144.68 399.736 1076.05 429.324 1036.81 446.693C1015.68 456.043 989.912 463.764 971.339 480.708C960.565 490.53 952.484 505.177 942.861 516.558C913.7 551.045 874.575 574.68 834.938 570.16C816.611 568.067 799.732 560.057 782.937 552.784C765.744 545.341 748.005 539.047 731.203 530.587C717.792 523.832 702.393 514.353 702.132 494.402C701.799 469.259 715.146 438.961 724.44 416.352Z" stroke="white" stroke-width="2"/>
<path fill-rule="evenodd" clip-rule="evenodd" d="M744.931 411.969C770.169 360.948 807.116 314.483 854.163 292.595C879.111 280.988 905.922 275.545 931.75 269.991C961.026 263.697 990.665 260.664 1019.5 262.946C1055.39 265.784 1112.32 274.925 1117.44 327.278C1122.53 379.243 1066.51 409.018 1033.63 425.728C1012.55 436.429 990.615 445.556 969.912 457.882C958.687 464.563 949.106 473.192 938.816 481.8C910.354 505.662 874.769 521.054 841.524 525.453C809.302 529.719 772.002 525.435 742.459 513.255C729.71 508.006 721.815 499.708 722.215 482.238C722.788 457.957 734.502 433.045 744.931 411.969Z" stroke="white" stroke-width="2"/>
<path fill-rule="evenodd" clip-rule="evenodd" d="M766.727 402.247C790.167 357.651 824.912 320.493 866.28 301.043C912.653 279.239 966.102 274.541 1013.28 277.509C1038.35 279.091 1093.39 279.91 1095.55 320.355C1097.71 360.801 1052.83 388.062 1027.25 402.834C996.21 420.726 963.484 437.261 931.236 452.135C903.215 465.072 873.542 478.024 844.78 486.106C828.545 490.712 812.138 493.628 795.752 494.82C783.626 495.672 767.983 497.596 757.108 491.63C729.682 476.571 755.518 423.57 766.727 402.247Z" stroke="white" stroke-width="2"/>
<path fill-rule="evenodd" clip-rule="evenodd" d="M792.639 393.955C840.217 310.49 926.586 286.315 1002.48 290.159C1020.11 291.056 1070.32 290.705 1072.29 320.626C1074.2 349.634 1037.02 373.467 1019.57 384.801C965.49 419.924 904.802 440.448 846.898 461.375C828.824 467.907 795.184 483.578 779.138 467.891C761.722 450.838 782.777 411.263 792.639 393.955Z" stroke="white" stroke-width="2"/>
<path fill-rule="evenodd" clip-rule="evenodd" d="M821.364 383.134C859.537 322.508 929.205 300.54 987.267 302.702C1001.49 303.235 1038.07 302.833 1043.28 324.001C1048.1 343.584 1019.06 362.305 1008.04 369.883C983.511 386.761 956.555 398.857 930.055 410.325C905.549 420.939 880.718 431.895 855.82 439.753C842.707 443.888 817.619 453.485 807.843 439.055C797.315 423.529 812.889 396.596 821.364 383.134Z" stroke="white" stroke-width="2"/>
<path fill-rule="evenodd" clip-rule="evenodd" d="M853.095 370.936C880.256 331.944 929.533 315.102 968.871 315.659C979.455 315.814 1002.62 315.067 1007.89 328.838C1012.75 341.519 996.169 353.76 988.736 359.473C955.792 384.797 912.424 403.682 874.992 412.387C865.581 414.576 848.468 419.236 842.375 408.095C836.127 396.657 846.857 379.889 853.095 370.936Z" stroke="white" stroke-width="2"/>
<path fill-rule="evenodd" clip-rule="evenodd" d="M886.127 360.351C900.658 341.269 927.958 331.25 948.362 331.199C962.72 331.167 977.976 338.607 961.308 354.141C944.755 369.552 918.716 380.702 898.477 383.315C883.037 385.306 873.648 376.743 886.127 360.351Z" stroke="white" stroke-width="2"/>
<path fill-rule="evenodd" clip-rule="evenodd" d="M133.762 317.872C144.545 275.368 137.899 226.411 158.568 185.697C175.541 152.258 213.979 159.387 240.864 149.381C262.228 141.433 278.468 121.563 293.982 102.481C307.918 85.3514 321.123 67.3986 335.438 50.7135C344.701 39.9292 361.425 18.3596 374.438 21.3764C386.897 24.2621 393.143 46.2365 397.314 59.3547C402.755 76.4547 406.876 94.2353 411.983 111.496C420.583 140.607 433.982 164.039 450.309 187.193C468.89 213.54 488.048 239.311 507.784 264.508C522.303 283.1 536.975 301.622 550.426 321.38C558.862 333.777 578.32 358.008 573.76 375.472C571.585 383.805 562.66 391.288 556.525 396.771C546.142 406.053 534.989 414.094 523.869 421.906C503.156 436.459 482.006 449.983 460.975 463.77C433.679 481.664 407.426 499.426 381.816 521.181C355.329 543.706 329.45 567.371 303.303 590.545C285.593 606.245 267.268 624.295 245.959 631.131C219.278 639.664 204.729 619.228 181.759 612.881C162 607.418 178.467 551.794 180.124 535.545C181.823 519.103 180.19 502.936 182.267 486.555C184.863 466.108 190.235 445.917 194.915 425.801C200.646 401.199 206.547 377.897 187.689 362.876C176.954 354.336 164.107 349.702 152.379 343.167C144.781 338.93 130.354 331.3 133.762 317.872Z" stroke="white" stroke-width="2"/>
<path fill-rule="evenodd" clip-rule="evenodd" d="M145.513 312.947C152.949 276.889 152.861 228.163 174.275 194.623C192.572 165.961 224.642 170.203 249.912 159.343C270.769 150.389 284.385 130.239 298.838 110.733C310.433 95.0852 321.864 79.2132 334.242 64.3747C343.365 53.4395 357.833 34.7283 370.539 35.3641C381.961 35.9352 388.559 57.6448 392.085 68.735C397.227 84.9237 400.77 101.958 404.647 118.744C411.462 148.232 419.301 175.207 434.315 199.55C449.396 223.998 467.662 244.152 486.007 264.949C500.359 281.221 514.531 297.805 527.532 315.634C537.218 328.91 551.565 346.426 552.457 365.711C553.166 380.967 524.219 398.213 515.319 404.653C497.006 417.889 478.148 429.869 459.29 441.744C436.303 456.211 413.393 468.112 391.765 485.846C353.084 517.551 316.446 560.123 272.39 579.585C245.817 591.324 220.288 589.305 196.682 580.158C187.334 576.536 189.469 559.325 190.848 549.322C193.138 532.705 197.266 516.284 200.039 499.727C202.634 484.227 203.254 469.006 204.624 453.492C206.015 437.774 209.398 422.195 211.51 406.56C212.825 396.854 214.564 385.615 211.336 376.665C207.998 367.399 199.915 361.725 192.75 357.141C179.282 348.575 140.267 338.394 145.513 312.947Z" stroke="white" stroke-width="2"/>
<path fill-rule="evenodd" clip-rule="evenodd" d="M162.024 301.443C167.264 267.919 173.252 226.021 195.517 199.808C213.717 178.373 239.926 179.72 261.918 168.469C280.21 159.114 291.44 139.448 304.018 121.747C314.337 107.229 324.706 92.6481 336.088 79.251C344.72 69.0907 356.053 55.2158 368.088 54.0896C378.378 53.1288 384.788 71.503 387.905 80.6286C393.209 96.179 396.455 112.88 399.704 129.373C405.018 156.36 408.962 184.722 420.422 208.586C431.564 231.749 447.814 248.013 464.054 265.756C476.492 279.349 488.738 293.286 499.816 308.49C508.323 320.158 518.993 334.143 520.744 350.234C522.267 364.115 505.724 375.629 497.073 382.816C482.792 394.675 467.695 405.02 452.745 415.462C436.611 426.726 419.463 436.51 403.63 448.237C370.327 472.922 341.131 502.309 304.004 518.108C279.958 528.344 249.424 535.313 226.609 526.475C210.203 520.115 223.545 474.761 225.83 459.74C229.552 435.174 231.113 408.734 228.812 384.571C226.826 363.862 211.675 353.58 197.439 345.239C188.522 340.009 178.816 335.874 170.603 329.281C161.096 321.644 159.827 315.494 162.024 301.443Z" stroke="white" stroke-width="2"/>
<path fill-rule="evenodd" clip-rule="evenodd" d="M177.805 289.3C183.108 261.191 192.304 228.736 212.152 208.511C229.543 190.797 252.021 190.93 271.367 178.488C286.465 168.783 296.649 149.091 307.466 133.804C320.687 115.113 341.692 79.675 363.116 77.0491C383.044 74.6108 389.431 126.012 392.238 141.582C396.682 166.225 398.874 192.531 405.961 216.088C412.066 236.37 423.913 249.852 436.453 264.289C452.437 282.719 477.879 306.312 481.422 334.834C484.066 356.087 451.135 377.806 438.938 388.772C426.187 400.225 414.976 414.846 402.067 425.732C381.695 442.91 353.298 453.526 330.137 461.228C307.619 468.723 279.024 476.035 257.538 469.385C243.416 465.018 247.908 437.391 248.384 423.436C249.027 403.588 247.713 385.295 238.66 369.252C229.446 352.921 216.134 342.823 201.853 333.28C194.517 328.4 185.886 323.815 180.143 316.391C173.773 308.281 175.768 300.104 177.805 289.3Z" stroke="white" stroke-width="2"/>
<path fill-rule="evenodd" clip-rule="evenodd" d="M196.295 277.234C202.788 253.462 214.046 229.275 232.185 214.457C247.292 202.114 265.896 201.621 280.624 188.811C292.289 178.671 301.194 162.434 310.634 149.558C322.189 133.776 340.099 105.596 358.736 104.039C376.92 102.534 382.514 140.358 385.283 155.473C389.33 177.634 391.287 200.498 395.433 222.627C398.674 239.985 405.023 252.314 414.356 265.443C425.311 280.862 441.493 299.027 443.849 320.311C445.532 335.715 426.437 354.492 418.38 365.506C412.975 372.905 407.805 380.507 403.802 389.024C400.684 395.657 398.832 402.072 393.605 407.084C380.448 419.688 359.916 416.29 345.012 417.614C325.221 419.366 304.088 421.722 284.839 418.094C273.005 415.879 270.581 401.251 266.421 390.303C261.506 377.36 252.524 366.593 245.047 355.816C235.183 341.577 223.097 331.125 210.575 320.383C204.928 315.536 198.133 310.445 194.768 302.916C191.242 295.1 193.954 285.814 196.295 277.234Z" stroke="white" stroke-width="2"/>
<path fill-rule="evenodd" clip-rule="evenodd" d="M215.038 267.111C222.685 247.734 234.944 230.541 250.791 219.641C262.943 211.269 276.858 208.45 287.77 197.403C297.94 187.104 306.46 174.577 315.651 163.115C325.375 150.999 340.505 130.446 355.445 130.444C371.546 130.444 376.913 156.704 379.882 171.257C383.631 189.647 385.105 208.747 387.848 227.466C389.95 241.433 393.841 254.735 399.391 266.928C405.198 279.77 414.197 292.991 414.683 308.64C415.106 322.498 403.728 336.079 398.97 348.741C393.884 362.269 392.364 377.502 381.61 387.406C359.432 407.831 321.538 392.787 299.035 387.32C276.824 381.95 263.118 362.142 249.1 343.035C239.839 330.419 229.702 319.12 219.971 307.07C210.052 294.778 208.308 284.164 215.038 267.111Z" stroke="white" stroke-width="2"/>
<path fill-rule="evenodd" clip-rule="evenodd" d="M231.998 259.393C246.533 232.248 271.82 222.526 292.813 204.694C309.993 190.094 329.216 155.476 351.378 156.154C376.54 156.926 377.537 209.888 380.683 231.064C384.177 254.55 395.854 276.021 396.649 300.105C397.072 312.748 391.097 322.838 386.074 334.015C380.561 346.289 375.487 358.988 365.558 367.396C346.015 383.941 318.518 376.421 298.538 371.666C277.855 366.746 263.427 347.953 250.796 329.671C237.393 310.303 217.101 287.233 231.998 259.393Z" stroke="white" stroke-width="2"/>
<path fill-rule="evenodd" clip-rule="evenodd" d="M245.453 254.581C258.616 235.993 279.155 223.518 296.417 211.171C310.821 200.881 329.631 177.438 346.707 179.983C366.778 182.967 370.976 214.509 373.976 233.963C376.937 253.082 382.966 274.048 382.114 293.933C381.231 314.649 362.581 337.87 347.816 348.74C331.349 360.86 309.642 361.152 292.491 355.896C274.529 350.412 261.309 333.205 251.121 316.302C240.229 298.233 230.156 276.155 245.453 254.581Z" stroke="white" stroke-width="2"/>
<path fill-rule="evenodd" clip-rule="evenodd" d="M257.023 253.519C268.914 238.311 285.446 227.181 300.572 217.355C312.246 209.768 330.074 196.325 343.163 199.387C357.564 202.753 365.841 220.265 367.598 236.412C369.328 252.337 370.378 272.004 366.976 288.054C359.561 323.006 312.187 351.689 285.223 341.096C259.657 331.052 233.32 283.816 257.023 253.519Z" stroke="white" stroke-width="2"/>
<path fill-rule="evenodd" clip-rule="evenodd" d="M267.269 254.236C283.321 234.572 316.301 209.243 339.129 214.549C365.331 220.643 362.347 257.864 352.074 282.665C341.605 307.981 301.488 337.935 278.988 326.405C257.028 315.153 248.24 277.559 267.269 254.236Z" stroke="white" stroke-width="2"/>
<path fill-rule="evenodd" clip-rule="evenodd" d="M278.522 253.376C292.057 236.937 316.5 218.423 335.649 222.796C358.464 228.012 350.014 257.848 339.897 275.116C329.384 293.043 297.067 319.813 278.685 309.293C260.816 299.043 265.551 269.133 278.522 253.376Z" stroke="white" stroke-width="2"/>
<path fill-rule="evenodd" clip-rule="evenodd" d="M288.054 253.621C297.256 241.769 315.852 228.656 329.375 231.701C345.901 235.433 336.358 258.336 329.061 268.67C320.384 280.967 297.2 300.162 284.103 292.534C271.208 285.026 280.466 263.385 288.054 253.621Z" stroke="white" stroke-width="2"/>
<path fill-rule="evenodd" clip-rule="evenodd" d="M852.784 1223.05C809.41 1240.15 762.566 1251.31 717.957 1263.46C652.768 1281.21 586.985 1297.85 521.181 1306.45C485.902 1311.06 439.673 1318.94 408.344 1299.53C396.889 1292.43 388.569 1278.02 379.374 1267.65C366.695 1253.34 353.654 1239.47 340.646 1225.59C314.547 1197.76 288.299 1170.1 263.072 1141.16C250.926 1127.23 239.912 1110.83 226.765 1098.19C219.083 1090.81 207.673 1090.24 197.957 1087.97C175.451 1082.73 152.781 1078.14 130.167 1073.35C102.508 1067.48 74.7617 1061.69 47.6101 1053.8C35.3649 1050.24 4.48959 1044.83 1.1787 1030.07C-0.600789 1022.12 11.3639 1011.85 16.9074 1007.1C27.0886 998.369 38.0795 990.989 48.9332 983.677C74.0338 966.766 100.043 951.226 123.703 931.164C135.861 920.848 151.491 908.454 150.4 889.632C149.303 870.622 143.35 852.821 141.908 833.783C140.245 811.874 142.914 790.253 145.285 768.129C147.033 751.776 145.037 736.337 143.533 720.426C141.874 702.84 140.038 685.062 140.429 667.09C140.686 655.219 141.653 633.997 153.086 629.501C169.332 623.105 192.581 638.039 207.245 645.135C227.513 654.936 247.326 665.812 267.429 675.993C282.023 683.39 296.585 691.116 312.206 695.709C337.386 703.113 363.384 707.808 389.191 712.609C436.977 721.498 484.776 728.996 531.741 741.582C572.887 752.608 652.407 836.188 671.923 852.383C710.878 884.71 751.299 916.291 786.059 954.728C795.461 965.133 810.339 979.625 812.266 996.37C813.458 1006.69 810.316 1011.63 817.413 1019.97C827.095 1031.36 841.452 1038.66 853.619 1045.85C873.214 1057.44 893.215 1068.16 913.057 1079.21C953.196 1101.54 992.663 1125.2 1032.37 1148.43C1044.37 1155.45 1059.83 1160.44 1070.51 1170.01C1077.39 1176.16 1075.21 1180.99 1067.42 1185.45C1053.74 1193.26 1036.99 1195.15 1022.59 1197.84C1001.48 1201.77 980.329 1204.66 959.197 1207.44C938.065 1210.21 916.9 1212.72 895.755 1215.5C881.791 1217.33 866.323 1217.71 852.784 1223.05Z" stroke="white" stroke-width="2"/>
<path fill-rule="evenodd" clip-rule="evenodd" d="M824.58 1209.17C779.099 1225.77 730.869 1235.78 684.306 1245.67C624.71 1258.35 564.377 1269.04 504.654 1270.94C469.589 1272.06 428.416 1272.63 398.284 1252.5C387.535 1245.32 381.117 1233.93 373.114 1223.26C363.994 1211.08 354.226 1199.54 344.423 1188.14C324.244 1164.65 303.65 1141.68 282.641 1119.21C271.522 1107.27 259.816 1092.15 245.502 1085.2C234.123 1079.68 219.6 1079.37 207.289 1077.11C185.118 1073.04 162.938 1069.03 140.816 1064.74C115.291 1059.79 89.7306 1054.69 64.7002 1047.68C50.7496 1043.77 26.031 1039.94 19.0923 1026.25C13.0389 1014.3 53.8049 987.893 61.1058 982.756C83.905 966.719 107.333 951.91 129.321 934.12C142.307 923.635 158.115 910.886 166.746 894.689C174.097 880.884 172.014 862.352 171.775 847.706C171.484 829.362 172.298 810.646 171.125 792.451C170.082 776.239 165.631 760.854 162.226 745.459C158.481 728.524 154.704 711.318 153.312 693.564C152.471 682.643 151.131 664.374 160.665 656.735C171.673 647.93 194.628 661.763 204.433 666.066C224.315 674.839 243.617 685.132 263.071 694.93C295.384 711.2 326.34 726.153 361.581 734.002C407.474 744.217 454.028 751.793 500.07 761.42C517.075 764.964 534.603 767.625 551.093 773.144C560.546 776.311 566.905 781.855 570.329 791.437C575.007 804.515 590.954 815.334 601.487 824.941C617.911 839.915 634.76 854.264 651.524 868.718C688.322 900.458 726.131 931.677 759.142 968.821C769.587 980.569 781.614 993.771 787.298 1010.08C790.472 1019.18 787.167 1026.23 788.171 1035.26C789.52 1047.15 802.128 1055.73 809.499 1061.48C823.724 1072.58 839.207 1081.61 854.638 1090.32C889.555 1110.02 925.447 1126.44 962.307 1141.33C970.948 1144.81 1005.11 1157.99 981.78 1171.18C956.002 1185.75 923.901 1187.67 896.85 1192.52C872.485 1196.88 848.292 1200.52 824.58 1209.17Z" stroke="white" stroke-width="2"/>
<path fill-rule="evenodd" clip-rule="evenodd" d="M772.999 1190.02C730.682 1204.01 686.093 1210.95 642.817 1217.43C590.302 1225.29 537.204 1230.61 485.139 1227.61C452.434 1225.72 416.951 1221.49 389.028 1202.58C369.959 1189.68 358.969 1165.65 344.133 1147.18C329.297 1128.7 313.492 1110.85 296.547 1094.97C286.03 1085.11 274.596 1074.95 260.703 1072.16C226.923 1065.36 192.404 1061.48 158.501 1055C136.068 1050.74 113.668 1046.17 91.712 1039.85C78.4709 1036.05 59.9313 1032.13 50.4409 1020.43C39.9519 1007.49 130.892 945.402 139.877 938.079C162.404 919.715 190.392 894.832 195.89 861.604C201.144 829.839 194.168 803.203 185.773 774.96C181.017 758.9 163.787 714.783 178.639 699.533C187.125 690.815 205.088 699.434 213.886 702.541C231.226 708.664 248.044 716.343 264.971 723.632C289.658 734.239 314.509 747.063 339.853 755.661C357.502 761.646 375.991 764.921 393.993 769.711C419.805 776.581 445.541 783.733 471.266 790.929C492.865 796.973 514.775 802.589 535.683 810.91C548.685 816.068 557.933 822.305 564.904 834.793C570.971 845.656 582.257 854.09 591.464 862.431C606.674 876.203 622.292 889.375 637.815 902.668C670.316 930.503 703.344 958.078 733.054 989.941C746.617 1004.48 770.189 1026.07 767.401 1051.76C766.397 1061.02 766.381 1065.14 772.144 1072.1C780.323 1081.99 791.556 1088.46 802.136 1094.31C826.802 1107.95 854.253 1114.26 878.895 1127.81C888.922 1133.36 901.402 1142.89 885.6 1152.81C867.152 1164.41 844.047 1167.32 824.347 1172.27C814.513 1174.73 804.503 1176.82 794.819 1180.46C787.378 1183.26 780.498 1187.57 772.999 1190.02Z" stroke="white" stroke-width="2"/>
<path fill-rule="evenodd" clip-rule="evenodd" d="M706.817 1164.38C668.428 1174.66 628.582 1178.94 589.753 1182.02C546.629 1185.42 503.196 1186.16 461.01 1180.13C431.877 1175.97 401.54 1168.92 376.944 1151.15C361.391 1139.92 353.364 1122.9 341.576 1107.27C323.792 1083.66 303.186 1063.21 275.252 1059.35C243.937 1055.03 212.777 1049.73 181.772 1043.45C163.069 1039.67 144.372 1035.58 126.168 1029.84C114.657 1026.22 99.8795 1021.36 91.474 1012.21C80.2294 999.953 148.724 947.983 157.633 940.121C179.727 920.622 197.933 898.829 212.547 871.251C224.47 848.747 218.288 826.888 211.506 805.847C207.286 792.778 191.515 758.526 202.678 746.015C208.813 739.11 221.875 743.053 229.059 744.541C242.749 747.383 256.076 751.816 269.465 755.782C289.23 761.661 311.423 763.608 330.36 771.903C372.33 790.278 414.427 807.732 457.228 824.088C480.822 833.101 504.625 841.925 527.377 853.211C535.545 857.264 543.97 861.495 551.097 867.622C555.683 871.559 557.399 876.631 560.894 881.352C577.566 903.838 602.891 919.896 623.854 937.062C651.724 959.881 679.821 982.523 706.151 1007.71C719.999 1020.96 739.932 1037.26 746.236 1058.42C748.141 1064.81 745.526 1068.82 746.235 1074.66C747.047 1081.4 753.982 1085.21 758.32 1088.19C768.165 1094.95 812.132 1112.98 785.097 1129.95C772.203 1138.03 757.597 1141.52 744.045 1146.96C739.138 1148.93 734.329 1150.94 729.814 1154.16C722.259 1159.57 715.585 1162.02 706.817 1164.38Z" stroke="white" stroke-width="2"/>
<path fill-rule="evenodd" clip-rule="evenodd" d="M636.417 1136.61C562.463 1150.07 479.875 1150.61 409.414 1127.34C385.984 1119.59 361.604 1108.17 345.161 1087.02C335.47 1074.53 328.541 1061.51 314.824 1054.26C304.92 1049.03 292.831 1048.72 281.957 1046.86C266.205 1044.18 250.486 1041.34 234.818 1038.25C215.401 1034.4 195.997 1030.25 177.022 1024.6C163.464 1020.57 144.49 1015.94 135.025 1003.8C123.721 989.325 173.204 948.876 180.67 941.306C198.765 922.96 213.003 904.301 223.107 879.054C226.059 871.701 231.235 864.739 232.886 856.973C234.564 849.039 232.482 841.017 230.485 833.89C227.878 824.552 216.462 801.003 223.831 792.442C227.902 787.715 237.908 789.663 243.307 789.877C253.44 790.265 263.441 791.694 273.512 792.543C290.602 793.969 309.355 788.726 325.642 793.382C369.443 805.887 409.61 834.5 450.271 855.199C474.44 867.523 498.917 879.388 522.256 893.56C529.64 898.047 537.243 902.679 543.794 908.687C548.367 912.879 550.458 918.728 554.55 923.147C570.235 940.108 590.004 953.149 608.125 966.592C631.644 984.065 655.336 1001.25 678.492 1019.34C693.007 1030.69 712.427 1042.45 723.084 1059.13C730.868 1071.31 723.068 1072.23 715.28 1079.55C711.304 1083.28 710.764 1087.86 708.201 1092.6C704.542 1099.37 698.278 1103.27 692.459 1106.72C684.429 1111.5 674.614 1114.58 667.341 1121.12C664.778 1123.42 663.935 1126.91 661.814 1128.95C655.644 1134.89 643.372 1135.35 636.417 1136.61Z" stroke="white" stroke-width="2"/>
<path fill-rule="evenodd" clip-rule="evenodd" d="M569.596 1106.85C511.095 1112.09 448.845 1107.33 393.919 1087.08C374.809 1080.03 356.216 1070.57 340.423 1056.51C333.234 1050.13 328.244 1043.82 319.213 1041.13C298.256 1034.9 276.539 1031.24 255.303 1026.07C240.105 1022.36 224.892 1018.42 210.22 1012.9C200.409 1009.21 187.101 1004.38 180.867 994.624C171.816 980.425 203.473 948.886 210.644 939.75C222.531 924.598 234.873 907.519 237.281 886.945C238.014 880.653 237.875 874.883 239.325 868.654C240.55 863.297 242.409 858.546 242.226 853.061C242.005 846.263 236.143 834.234 240.608 829.226C243.653 825.806 249.593 827.2 253.85 826.984C260.755 826.636 267.682 825.607 274.558 823.909C281.804 822.102 288.622 818.139 295.931 817.002C307.794 815.164 319.786 817.906 330.931 820.916C375.4 832.926 417.586 855.713 457.948 878.535C478.967 890.418 500.007 902.72 519.583 917.446C525.527 921.92 532.356 926.642 536.886 933.176C539.714 937.245 541.156 941.781 544.687 945.218C574.854 974.567 613.902 992.929 647.731 1017.35C656.536 1023.71 705.823 1057.12 672.663 1067.23C652.518 1073.38 632.969 1073.39 613.272 1083.91C607.274 1087.1 603.082 1089.95 599.375 1096.29C596.921 1100.51 600.511 1099 595.088 1102.64C588.523 1107.01 576.411 1106.24 569.596 1106.85Z" stroke="white" stroke-width="2"/>
<path fill-rule="evenodd" clip-rule="evenodd" d="M517.301 1080.46C450.665 1079.68 384.415 1062.74 324.847 1031.64C309.83 1023.8 292.981 1020.2 277.057 1014.96C261.581 1009.89 233.171 1004.21 225.712 986.408C220.302 973.504 235.364 953.198 241.672 942.076C249.708 927.906 257.38 913.1 254.848 896.568C253.364 886.887 250.361 877.244 248.579 867.57C247.726 862.949 245.391 855.592 248.106 852.159C252.592 846.497 266.278 847.274 273.378 845.939C296.069 841.674 318.018 844.915 339.494 850.746C379.162 861.509 417.293 878.83 453.829 898.253C470.638 907.191 487.622 916.471 502.976 928.292C511.665 934.978 516.776 944.756 524.867 951.908C550.918 974.951 581.074 991.614 607.985 1013.51C615.774 1019.85 645.298 1041.92 624.468 1053.04C604.302 1063.79 581.261 1055.7 560.693 1065.39C558.36 1066.5 555.492 1067.82 553.688 1070.15C552.617 1071.54 552.961 1074.84 552.227 1075.6C544.476 1083.93 525.758 1080.57 517.301 1080.46Z" stroke="white" stroke-width="2"/>
<path fill-rule="evenodd" clip-rule="evenodd" d="M479.715 1059.1C446.284 1055.89 413.229 1048.45 380.603 1040.07C362.769 1035.49 342.86 1031.64 326.932 1021.48C317.15 1015.23 307.62 1009.5 297.173 1004.41C285.932 998.938 267.291 992.151 263.406 977.767C260.505 967.019 269.325 948.887 272.552 937.628C276.085 925.279 276.465 915.521 271.669 904.72C268.655 897.921 253.395 872.081 257.354 866.871C261.124 861.907 275.774 864.917 282.397 865.14C303.336 865.827 323.736 869.578 343.715 875.2C374.661 883.901 404.789 896.117 433.571 910.948C445.467 917.094 457.76 923.451 468.353 932.2C475.485 938.096 480.497 946.504 487.542 952.511C507.713 969.731 530.159 983.768 550.357 1001.21C556.836 1006.81 578.527 1022.92 568.743 1036.17C560.581 1047.23 543.076 1046.57 532.751 1052.69C515.176 1063.12 498.087 1060.88 479.715 1059.1Z" stroke="white" stroke-width="2"/>
<path fill-rule="evenodd" clip-rule="evenodd" d="M461.461 1046.6C435.13 1043.34 408.743 1037.93 382.969 1031.11C366.335 1026.7 348.726 1022.28 333.638 1013.35C326.058 1008.87 320.372 1001.61 313.641 995.713C306.709 989.647 296.864 982.314 295.824 972.388C294.848 963.061 299.365 951.045 299.25 940.083C299.142 930.355 295.339 923.344 291.269 915.698C288.679 910.814 274.534 888.886 277.695 885.729C281.082 882.348 292.213 885.68 298.199 886.691C314.697 889.451 330.97 893.281 346.945 898.167C368.734 904.89 390.297 913.132 410.531 924.133C424.887 931.932 434.106 943.817 446.686 954.092C462.977 967.424 480.403 979.184 496.306 993.255C504.23 1000.27 516.196 1009.76 517.727 1022.79C518.319 1027.78 516.993 1039.72 513.779 1043.7C509.918 1048.47 500.337 1048.37 495.732 1048.63C484.2 1049.26 472.653 1047.98 461.461 1046.6Z" stroke="white" stroke-width="2"/>
<path fill-rule="evenodd" clip-rule="evenodd" d="M440.002 1031.57C407.107 1027.43 370.267 1021.52 340.792 1004.22C328.879 997.231 318.881 983.313 317.467 967.607C316.73 959.487 318.503 950.532 316.364 942.281C314.778 936.181 312.235 930.373 309.659 924.907C308.209 921.821 298.293 904.386 301.578 902.627C305.044 900.771 311.615 903.442 316.275 904.621C327.439 907.444 338.465 910.959 349.275 914.959C361.703 919.563 374.339 924.595 385.585 932.07C394.651 938.119 401.833 947.663 410.412 954.487C432.943 972.512 457.496 988.48 477.025 1011.46C481.181 1016.34 489.852 1024.31 481.595 1030.62C471.319 1038.49 450.165 1032.86 440.002 1031.57Z" stroke="white" stroke-width="2"/>
<path fill-rule="evenodd" clip-rule="evenodd" d="M414.451 1016.3C391.041 1013.3 365.593 1008.02 344.595 995.653C333.961 989.394 325.489 980.02 323.923 965.853C322.793 955.751 324.56 945.289 322.023 935.192C321.122 931.628 317.089 921.224 320.735 920.166C328.541 917.88 342.263 926.596 351.001 931.233C364.146 938.235 373.413 950.46 385.295 959.419C403.522 973.157 428.239 984.512 443.095 1003.59C457.399 1022.01 421.281 1017.18 414.451 1016.3Z" stroke="white" stroke-width="2"/>
</g>
</svg>
